<?xml version="1.0" encoding="UTF-8" standalone="no"?>
<!-- Created with Inkscape (http://www.inkscape.org/) -->

<svg
   width="210mm"
   height="297mm"
   viewBox="0 0 210 297"
   version="1.1"
   id="svg5"
   xmlns:inkscape="http://www.inkscape.org/namespaces/inkscape"
   xmlns:sodipodi="http://sodipodi.sourceforge.net/DTD/sodipodi-0.dtd"
   xmlns="http://www.w3.org/2000/svg"
   xmlns:svg="http://www.w3.org/2000/svg">
  <sodipodi:namedview
     id="namedview7"
     pagecolor="#ffffff"
     bordercolor="#000000"
     borderopacity="0.25"
     inkscape:showpageshadow="2"
     inkscape:pageopacity="0.0"
     inkscape:pagecheckerboard="0"
     inkscape:deskcolor="#d1d1d1"
     inkscape:document-units="mm"
     showgrid="false" />
  <defs
     id="defs2">
    <rect
       x="104.70217"
       y="351.62915"
       width="107.55735"
       height="39.38781"
       id="rect11161" />
    <rect
       x="356.91937"
       y="228.16843"
       width="99.990387"
       height="46.196987"
       id="rect11149" />
    <rect
       x="86.505959"
       y="150.15433"
       width="90.137802"
       height="33.329018"
       id="rect11093" />
  </defs>
  <g
     inkscape:label="Layer 1"
     inkscape:groupmode="layer"
     id="layer1">
    <g
       id="g12134">
      <g
         aria-label="Headshot Styling
"
         transform="matrix(0.26458333,0,0,0.26458333,15.589224,-14.735934)"
         id="text11091"
         style="font-family:'Century Schoolbook Monospace';-inkscape-font-specification:'Century Schoolbook Monospace';white-space:pre;shape-inside:url(#rect11093);fill-opacity:0.854471;stroke-width:0.999999;paint-order:markers fill stroke">
        <path
           d="m 89.565859,152.83204 h -2.856 v 0.564 c 0.624,0 0.816,0.036 0.816,0.504 v 5.916 c 0,0.432 -0.168,0.504 -0.672,0.504 h -0.144 v 0.564 h 2.856 v -0.564 h -0.132 c -0.516,0 -0.684,-0.084 -0.684,-0.504 v -2.844 h 2.736 v 2.844 c 0,0.42 -0.168,0.504 -0.684,0.504 h -0.132 v 0.564 h 2.856 v -0.564 h -0.144 c -0.504,0 -0.672,-0.072 -0.672,-0.504 v -5.916 c 0,-0.396 0.144,-0.504 0.612,-0.504 h 0.204 v -0.564 h -2.856 v 0.564 h 0.132 c 0.516,0 0.684,0.084 0.684,0.504 v 2.46 h -2.736 v -2.46 c 0,-0.372 0.132,-0.504 0.552,-0.504 h 0.264 z"
           id="path12136" />
        <path
           d="m 95.865851,157.68004 c 0.048,-1.428 0.528,-2.052 1.632,-2.052 0.852,0 1.356,0.6 1.356,1.68 0,0.3 -0.12,0.372 -0.468,0.372 z m 0,0.516 h 4.271999 c 0,-0.084 0.012,-0.168 0.012,-0.252 0,-1.74 -1.091999,-2.808 -2.747999,-2.808 -1.644,0 -2.808,1.2 -2.808,2.976 0,1.788 1.176,2.964 2.808,2.964 1.248,0 2.16,-0.564 2.735999,-1.692 l -0.383999,-0.24 c -0.504,0.864 -1.2,1.296 -2.136,1.296 -1.068,0 -1.752,-0.744 -1.752,-2.052 z"
           id="path12138" />
        <path
           d="m 106.64184,156.91204 c 0,-1.152 -0.516,-1.776 -2.184,-1.776 -1.428,0 -2.304,0.708 -2.304,1.536 0,0.432 0.252,0.684 0.696,0.684 0.384,0 0.636,-0.228 0.636,-0.6 0,-0.42 -0.3,-0.516 -0.3,-0.672 0,-0.216 0.384,-0.432 1.08,-0.432 0.84,0 1.284,0.324 1.284,0.864 v 0.864 c -2.544,0.408 -3.72,1.032 -3.72,2.232 0,0.888 0.648,1.464 1.644,1.464 0.864,0 1.74,-0.396 2.16,-0.96 0.096,0.564 0.456,0.888 1.008,0.888 0.672,0 1.116,-0.48 1.116,-0.732 0,-0.12 -0.06,-0.192 -0.156,-0.192 -0.108,0 -0.264,0.168 -0.504,0.168 -0.3,0 -0.456,-0.18 -0.456,-0.552 z m -1.092,0.96 v 0.852 c 0,1.188 -0.708,1.728 -1.596,1.728 -0.66,0 -0.948,-0.312 -0.948,-1.008 0,-0.912 0.816,-1.344 2.544,-1.572 z"
           id="path12140" />
        <path
           d="m 113.06183,159.99604 v 1.02 l 1.944,-0.132 v -0.516 c -0.108,0 -0.204,0.012 -0.288,0.012 -0.456,0 -0.624,-0.084 -0.624,-0.456 v -7.356 l -2.268,0.132 v 0.48 c 0.144,0 0.24,-0.012 0.264,-0.012 0.12,0 0.204,0.012 0.228,0.012 0.54,0 0.684,0.048 0.684,0.456 v 2.388 c -0.468,-0.624 -1.008,-0.888 -1.752,-0.888 -1.392,0 -2.52,1.2 -2.52,2.976 0,1.764 1.104,2.94 2.508,2.94 0.768,0 1.356,-0.348 1.824,-1.056 z m -1.584,-4.2 c 1.14,0 1.524,0.768 1.524,2.292 0,1.524 -0.408,2.304 -1.512,2.304 -1.128,0 -1.524,-0.756 -1.524,-2.304 0,-1.548 0.444,-2.292 1.512,-2.292 z"
           id="path12142" />
        <path
           d="m 117.51382,160.51204 c 0.468,0.372 1.128,0.588 1.8,0.588 1.38,0 2.196,-0.732 2.196,-1.872 0,-1.176 -0.816,-1.512 -2.208,-1.776 -1.092,-0.204 -1.8,-0.216 -1.8,-1.02 0,-0.396 0.408,-0.756 1.236,-0.756 0.972,0 1.704,0.552 1.992,1.512 h 0.372 v -1.992 h -0.372 l -0.348,0.42 c -0.528,-0.348 -1.044,-0.468 -1.668,-0.468 -1.2,0 -1.932,0.636 -1.932,1.62 0,1.308 0.984,1.572 2.34,1.836 0.888,0.18 1.608,0.228 1.608,0.96 0,0.612 -0.54,1.02 -1.368,1.02 -1.08,0 -1.92,-0.684 -2.22,-1.896 h -0.432 v 2.376 h 0.396 z"
           id="path12144" />
        <path
           d="m 123.87382,153.63604 v 6.276 c 0,0.348 -0.072,0.432 -0.396,0.444 l -0.516,0.024 v 0.504 h 2.928 v -0.504 l -0.516,-0.024 c -0.348,-0.012 -0.396,-0.108 -0.396,-0.444 v -1.98 c 0,-1.344 0.516,-2.004 1.536,-2.004 0.732,0 1.08,0.372 1.08,1.128 v 2.856 c 0,0.36 -0.084,0.432 -0.396,0.444 l -0.516,0.024 v 0.504 h 2.916 v -0.504 l -0.516,-0.024 c -0.324,-0.012 -0.396,-0.096 -0.396,-0.444 v -2.808 c 0,-1.26 -0.696,-1.92 -1.812,-1.92 -0.804,0 -1.428,0.348 -1.896,1.08 v -3.696 l -2.124,0.132 v 0.48 c 0.108,0 0.168,-0.012 0.192,-0.012 0.096,0 0.156,0.012 0.18,0.012 0.516,0 0.648,0.048 0.648,0.456 z"
           id="path12146" />
        <path
           d="m 130.62981,158.11204 c 0,1.8 1.188,2.964 2.832,2.964 1.656,0 2.832,-1.188 2.832,-2.964 0,-1.764 -1.176,-2.976 -2.832,-2.976 -1.656,0 -2.832,1.188 -2.832,2.976 z m 2.844,-2.484 c 1.104,0 1.548,0.804 1.548,2.484 0,1.68 -0.444,2.472 -1.548,2.472 -1.092,0 -1.56,-0.792 -1.56,-2.472 0,-1.68 0.468,-2.484 1.56,-2.484 z"
           id="path12148" />
        <path
           d="m 139.1378,158.74804 c 0,1.5 0.288,2.34 1.716,2.34 1.428,0 2.256,-0.804 2.256,-2.076 v -0.3 h -0.432 c -0.072,1.128 -0.504,1.632 -1.44,1.632 -0.696,0 -1.008,-0.384 -1.008,-1.176 v -3.312 h 2.496 v -0.528 h -2.496 v -2.436 h -0.504 c -0.072,1.656 -0.66,2.484 -1.8,2.484 h -0.096 v 0.48 h 1.308 z"
           id="path12150" />
        <path
           d="m 87.369859,176.02804 h 0.408 l 0.444,-0.78 c 0.432,0.48 1.26,0.828 2.136,0.828 1.74,0 2.688,-0.9 2.688,-2.46 0,-1.62 -0.948,-2.148 -2.592,-2.568 -1.416,-0.36 -2.172,-0.48 -2.172,-1.548 0,-0.84 0.54,-1.308 1.428,-1.308 1.236,0 2.088,0.84 2.46,2.484 h 0.492 l -0.108,-2.928 h -0.42 l -0.42,0.684 c -0.504,-0.516 -1.212,-0.792 -2.076,-0.792 -1.308,0 -2.256,0.9 -2.256,2.28 0,1.488 0.852,1.956 2.568,2.412 1.356,0.36 2.184,0.492 2.184,1.644 0,0.972 -0.636,1.572 -1.692,1.572 -1.416,0 -2.292,-0.936 -2.604,-2.796 h -0.516 z"
           id="path12152" />
        <path
           d="m 95.793851,173.74804 c 0,1.5 0.288,2.34 1.716,2.34 1.428,0 2.256,-0.804 2.256,-2.076 v -0.3 h -0.432 c -0.072,1.128 -0.504,1.632 -1.44,1.632 -0.696,0 -1.008,-0.384 -1.008,-1.176 v -3.312 h 2.496 v -0.528 h -2.496 v -2.436 h -0.504 c -0.072,1.656 -0.66,2.484 -1.8,2.484 h -0.096 v 0.48 h 1.308 z"
           id="path12154" />
        <path
           d="m 104.25384,170.32804 h -2.796 v 0.504 h 0.072 c 0.456,0 0.684,0.12 0.852,0.516 l 1.908,4.392 -0.084,0.192 c -0.504,1.236 -1.116,1.884 -1.5,1.884 -0.144,0 -0.216,-0.048 -0.216,-0.132 0,-0.06 0.096,-0.144 0.096,-0.312 0,-0.396 -0.24,-0.624 -0.624,-0.624 -0.42,0 -0.72,0.312 -0.72,0.732 0,0.504 0.384,0.9 1.104,0.9 1.068,0 1.704,-0.744 2.328,-2.184 l 2.028,-4.716 c 0.192,-0.444 0.444,-0.648 0.9,-0.648 v -0.504 h -2.316 v 0.504 c 0.612,0.012 0.84,0.06 0.84,0.408 0,0.108 -0.024,0.192 -0.06,0.264 l -1.2,2.88 -1.272,-2.928 c -0.084,-0.18 -0.132,-0.312 -0.132,-0.372 0,-0.156 0.108,-0.252 0.312,-0.252 h 0.48 z"
           id="path12156" />
        <path
           d="m 110.90183,175.35604 -1.56,0.024 v 0.504 h 4.992 v -0.504 l -1.524,-0.024 c -0.348,0 -0.408,-0.108 -0.408,-0.444 v -7.344 l -2.712,0.132 v 0.48 c 0.456,0 0.72,-0.012 0.804,-0.012 0.132,0 0.204,0.012 0.228,0.012 0.468,0 0.588,0.084 0.588,0.456 v 6.276 c 0,0.324 -0.06,0.444 -0.408,0.444 z"
           id="path12158" />
        <path
           d="m 119.75782,167.91604 c 0,-0.396 -0.336,-0.708 -0.708,-0.708 -0.384,0 -0.708,0.324 -0.708,0.708 0,0.372 0.3,0.708 0.708,0.708 0.396,0 0.708,-0.324 0.708,-0.708 z m -3.204,7.464 v 0.504 h 5.016 v -0.504 l -1.536,-0.024 c -0.348,0 -0.408,-0.108 -0.408,-0.444 v -4.728 l -2.94,0.144 v 0.468 h 1.308 c 0.432,0 0.54,0.12 0.54,0.468 v 3.648 c 0,0.324 -0.06,0.444 -0.408,0.444 z"
           id="path12160" />
        <path
           d="m 123.47782,175.35604 -0.456,0.024 v 0.504 h 2.844 v -0.504 l -0.504,-0.024 c -0.348,-0.012 -0.396,-0.108 -0.396,-0.444 v -1.98 c 0,-1.344 0.516,-2.004 1.536,-2.004 0.696,0 1.08,0.42 1.08,1.128 v 2.856 c 0,0.36 -0.084,0.432 -0.396,0.444 l -0.492,0.024 v 0.504 h 2.844 v -0.504 l -0.468,-0.024 c -0.324,-0.012 -0.396,-0.084 -0.396,-0.444 v -2.808 c 0,-1.26 -0.684,-1.92 -1.812,-1.92 -0.828,0 -1.416,0.36 -1.956,1.152 v -1.152 l -2.004,0.144 v 0.468 h 0.312 c 0.516,0 0.66,0.06 0.66,0.468 v 3.648 c 0,0.348 -0.072,0.432 -0.396,0.444 z"
           id="path12162" />
        <path
           d="m 135.05781,170.44804 -0.18,0.144 c -0.444,-0.324 -0.936,-0.456 -1.536,-0.456 -1.38,0 -2.292,0.792 -2.292,1.968 0,0.744 0.36,1.308 1.02,1.608 -0.744,0.108 -1.176,0.576 -1.176,1.212 0,0.588 0.276,0.912 0.924,1.068 -0.78,0.168 -1.212,0.612 -1.212,1.128 0,0.744 0.84,1.248 2.484,1.248 2.076,0 3.12,-0.696 3.12,-1.896 0,-1.092 -0.636,-1.476 -1.932,-1.476 h -0.648 l -0.972,0.024 h -0.12 c -0.564,0 -0.852,-0.084 -0.852,-0.444 0,-0.444 0.42,-0.54 1.14,-0.54 1.86,0 2.808,-0.732 2.808,-1.968 0,-0.48 -0.108,-0.84 -0.42,-1.188 l 0.24,-0.192 c 0.096,-0.084 0.168,-0.132 0.216,-0.132 0.156,0 0.012,0.648 0.636,0.648 0.324,0 0.54,-0.216 0.54,-0.516 0,-0.492 -0.264,-0.744 -0.72,-0.744 -0.396,0 -0.708,0.192 -1.068,0.504 z m -1.716,0.216 c 0.84,0 1.224,0.456 1.224,1.428 0,0.972 -0.372,1.428 -1.224,1.428 -0.828,0 -1.224,-0.456 -1.224,-1.404 0,-0.984 0.384,-1.452 1.224,-1.452 z m -0.768,5.316 h 1.476 c 0.756,0 1.26,0.12 1.26,0.78 0,0.732 -0.696,1.056 -2.16,1.056 -0.996,0 -1.512,-0.288 -1.512,-0.852 0,-0.528 0.408,-0.912 0.936,-0.984 z"
           id="path12164" />
      </g>
      <path
         style="color:#000000;fill:#000000;fill-rule:evenodd;stroke-width:0.683959;-inkscape-stroke:none"
         d="M 45.606555,6.1645657 C 36.273396,6.7140784 28.413672,11.785802 25.108085,20.948668 20.786975,32.926499 27.192236,46.576403 39.309723,50.86834 51.185725,55.074747 64.717282,48.835213 68.97027,37.031639 73.137007,25.467443 66.951898,12.290821 55.25168,8.1519803 43.793002,4.0985819 30.738946,10.119908 26.640423,21.509903 22.628057,32.660465 28.593013,45.363811 39.875964,49.349549 50.917317,53.249941 63.493879,47.445493 67.437931,36.469074 71.295928,25.732149 65.551127,13.503402 54.685439,9.6707724 44.061413,5.9233832 31.962337,11.509623 28.172762,22.072468 24.469133,32.395754 29.99512,44.151241 40.443546,47.830756 50.650244,51.425145 62.270501,46.057113 65.905592,35.907839 69.454858,25.998194 64.149026,14.715959 54.117857,11.189564 44.32849,7.7481747 33.185701,12.899325 29.705101,22.635033 26.310197,32.131036 31.395871,42.938699 41.009787,46.311964 50.38182,49.600359 59.246025,44.467413 62.572126,35.145267 65.812672,26.06291 62.748283,15.928484 53.551616,12.708357 44.596919,9.5729535 34.40769,14.28768 31.236097,23.196268 l 0.599365,0.202328 c 3.137632,-8.813198 12.79589,-13.6222121 21.655773,-10.520007 9.100457,3.18644 13.067548,13.701321 9.860534,22.6897 C 60.059681,44.795102 49.64161,49.539334 40.364398,46.28421 30.846637,42.944683 26.514206,32.096897 29.87551,22.694881 33.322047,13.054452 44.362937,7.9517432 54.057476,11.359797 63.99254,14.852406 69.250784,26.032339 65.735183,35.847992 62.134201,45.902034 49.910021,51.3619 39.798157,47.800909 29.445789,44.155221 24.104497,31.936269 27.774403,21.706981 31.529827,11.239324 44.094529,6.1270683 54.623716,9.8410048 65.393387,13.639767 70.38597,26.474507 66.561751,37.117428 62.651889,47.998698 50.482016,53.145471 39.535507,49.278583 28.348533,45.326749 22.833636,32.627633 26.812174,21.57108 30.876472,10.276196 43.827471,4.3023671 55.191299,8.3222127 66.795576,12.427115 72.932723,25.500279 68.79986,36.970462 64.581129,48.67896 51.151252,54.870917 39.370105,50.698108 27.348524,46.44014 20.793021,33.995946 25.080214,22.112133 29.453375,9.9900215 43.559074,2.477644 55.757539,6.8034206 64.410198,9.8717956 69.968083,18.688798 70.933634,27.739374 l 0.160601,0.793529 C 70.121231,19.412472 64.539303,9.7267883 55.819263,6.6345181 52.745932,5.5446645 48.717609,5.9813943 45.606555,6.1645657 Z"
         id="path11765"
         sodipodi:nodetypes="sssssssssssssssssccsssssssssssssssssccss" />
      <path
         style="color:#000000;fill:#000000;fill-rule:evenodd;stroke-width:0.683959;-inkscape-stroke:none"
         d="M 87.405377,28.668562 C 76.178853,28.772044 66.799105,38.101684 66.906659,49.262691 67.011763,60.169455 76.238477,69.281923 87.276564,69.174561 98.058125,69.069695 107.06587,60.10771 106.95678,49.387706 106.85028,38.921972 97.638199,30.038114 87.045048,30.146999 76.70845,30.253247 68.429005,38.989009 68.539632,49.268011 c 0.107891,10.024705 8.594083,18.39843 18.742299,18.288013 9.891635,-0.107625 18.152709,-8.335637 18.040539,-18.173638 -0.10928,-9.583673 -8.224546,-17.587378 -17.927828,-17.475419 -9.446669,0.108998 -17.334434,7.969362 -17.220694,17.366364 0.110661,9.142641 7.855,16.776338 17.11335,16.662825 C 96.289,65.82579 103.80481,58.33307 103.68949,49.377066 103.57745,40.67546 96.202694,33.411755 87.389275,33.526835 l 0.0027,0.179542 c 8.711311,-0.113746 16.004295,7.071346 16.115055,15.673349 0.11401,8.854814 -7.321202,16.267755 -16.222395,16.376888 C 78.128336,65.868875 70.464546,58.313672 70.355091,49.270671 70.242576,39.97482 77.62774,32.195677 86.973864,32.087839 96.575111,31.977058 105.03318,39.901046 105.14132,49.385046 105.25235,59.121932 96.717419,67.198429 86.926362,67.30496 76.880146,67.414267 68.828935,59.190353 68.722118,49.265352 68.612578,39.087432 77.166701,30.573185 87.402693,30.467972 97.893875,30.360135 106.66881,39.024363 106.7743,49.390366 106.88236,60.009317 97.954808,68.891131 87.27388,68.995019 76.337734,69.101389 66.909636,60.067037 66.805494,49.260032 66.698913,38.20005 76.282196,28.951988 87.40806,28.849434 c 11.38111,-0.104907 20.89776,9.298242 21.00055,20.546252 0.10511,11.50101 -9.567954,21.116657 -21.138755,21.217871 -6.888988,0.06026 -13.528704,-3.259319 -17.600425,-8.762979 l -0.146256,0.106396 c 4.106815,5.551096 10.516799,8.260235 17.465714,8.19945 C 98.660373,70.05433 108.48405,61.277894 108.37802,49.675883 108.27432,38.328093 98.8884,28.562716 87.405377,28.668562 Z"
         id="path11041-3"
         sodipodi:nodetypes="ssssssssssssccssssssssssssssccsss" />
      <path
         style="color:#000000;fill:#000000;fill-rule:evenodd;stroke-width:0.683959;-inkscape-stroke:none"
         d="M 43.500278,63.368122 C 29.60591,63.555596 18.066397,75.164345 18.258288,88.969478 18.446647,102.5205 29.971602,113.77481 43.677396,113.58535 57.126808,113.39943 68.296661,102.16071 68.106254,88.796585 67.919468,75.686583 56.766499,65.047766 43.505646,65.235755 30.50119,65.420108 19.702336,76.041039 19.891262,88.964158 20.076472,101.63314 30.856115,112.27852 43.672029,112.092 56.231526,111.90921 66.23385,101.38983 66.0464,88.907715 65.862768,76.67976 55.881987,66.421465 43.511012,66.606527 31.396473,66.787754 21.9414,77.117744 22.127379,89.158852 22.309432,100.94578 31.740626,110.53055 43.666662,110.34694 55.336242,110.16728 64.66591,98.776439 64.838965,88.807225 64.959141,81.884196 55.634747,68.00914 44.153649,68.191299 c -11.22462,0.17809 -21.178154,9.60312 -20.995098,20.762219 0.178886,10.904877 9.466582,19.955602 20.502743,19.774882 l -0.0027,-0.18087 C 32.724381,108.72658 23.516944,99.755987 23.339694,88.950859 23.158296,77.892776 32.395094,68.58243 43.519063,68.405937 54.898256,68.225395 64.477596,77.563754 64.656479,88.809885 64.839387,100.309 55.232884,110.23968 43.663978,110.41779 31.839823,110.59983 21.887232,100.64331 21.706721,88.956178 21.522301,77.01604 31.57043,66.790071 43.584273,66.61035 55.853389,66.426811 66.108661,76.676427 66.290795,88.804565 66.476729,101.18573 56.128127,111.60461 43.669345,111.78594 30.95527,111.97098 20.153409,101.22988 19.969659,88.660738 19.782209,75.838547 30.746801,65.279743 43.650521,65.096816 56.809555,64.910272 67.880597,75.718381 68.06596,88.72853 68.254929,101.99175 56.823016,113.44648 43.474356,113.631 29.870364,113.81906 18.476686,102.6445 18.289715,89.193345 18.099226,75.489105 29.602459,63.912157 43.396058,63.726043 c 5.248108,-0.07081 10.572292,1.315378 14.906986,4.247663 l -0.14608,-0.07824 c -4.365935,-2.953418 -9.370539,-4.59867 -14.656686,-4.527344 z"
         id="path11041-6"
         sodipodi:nodetypes="ssssssssssssssccssssssssssssssccs" />
      <path
         style="color:#000000;fill:#000000;fill-rule:evenodd;stroke-width:0.683959;-inkscape-stroke:none"
         d="m 95.112441,74.161508 c -5.362441,-0.0071 -10.143193,1.852436 -14.151992,5.85001 -7.836763,7.814821 -7.898625,20.856312 0.01208,28.645592 7.72871,7.61007 20.223491,7.44353 27.923391,-0.24286 7.51915,-7.50595 7.97575,-19.801887 0.37656,-27.276273 -7.41708,-7.295267 -19.786612,-7.348377 -27.168812,0.02926 -7.201526,7.197075 -7.252801,19.197273 0.03489,26.356763 7.10545,6.98046 18.949032,7.02766 26.013532,-0.0412 6.88391,-6.8882 6.78012,-18.215383 -0.19607,-25.059973 -6.79382,-6.665652 -17.81056,-6.859995 -24.557341,-0.09984 -6.566298,6.579313 -6.757459,17.536922 -0.09275,24.066603 6.482174,6.35085 17.399381,6.51411 23.828441,0.0627 6.24869,-6.27042 6.08444,-16.581559 -0.26879,-22.796326 -6.17053,-6.036045 -16.362801,-6.318617 -22.474132,-0.175908 -5.93108,5.96153 -5.961258,15.875275 0.08051,21.775114 5.858875,5.72125 15.598762,5.75022 21.392362,-0.0838 5.61347,-5.652624 5.64041,-15.046456 -0.0899,-20.631362 -5.54721,-5.406452 -14.762561,-5.429559 -20.238403,0.09576 -5.295874,5.343722 -5.316905,14.216332 0.101977,19.486292 5.235549,5.09166 13.92504,5.11025 19.083116,-0.1064 4.97828,-5.034802 4.99341,-13.387545 -0.11405,-18.342538 l -0.12613,0.129004 c 5.03434,4.884046 5.14358,13.298603 0.23552,18.262394 -5.086471,5.14423 -13.787066,4.95054 -18.950985,-0.0715 -5.345886,-5.198974 -5.324826,-13.958202 -0.09929,-19.230948 5.404199,-5.453025 14.505155,-5.431104 19.980775,-0.09443 5.65744,5.513878 5.63159,14.795658 0.0886,20.377348 -5.72191,5.76182 -15.549103,5.83383 -21.336424,0.18246 -5.968995,-5.828775 -5.562601,-15.580097 0.297935,-21.470721 6.039619,-6.070628 16.016949,-6.188279 22.115959,-0.222197 6.28055,6.143674 6.24515,16.466628 0.0671,22.666178 -6.35732,6.37943 -17.085879,6.56755 -23.49656,0.28674 -6.592115,-6.45856 -6.50204,-17.528355 -0.0065,-24.036819 6.675014,-6.688244 17.8796,-6.646071 24.60195,-0.05054 6.90368,6.773444 7.03281,18.214149 0.21968,25.031519 -6.9927,6.99706 -18.396038,7.4748 -25.430044,0.56453 -7.215246,-7.08832 -7.439442,-19.90053 -0.308759,-27.026803 7.310386,-7.305867 19.790833,-7.179089 27.136493,0.04593 7.52682,7.403196 7.0197,20.061703 -0.42854,27.496873 -7.62806,7.61468 -20.534666,7.60707 -28.191975,0.0673 -7.838383,-7.71807 -7.652383,-20.697517 0.113421,-28.441578 7.945744,-7.923497 21.252824,-7.859851 29.221774,-0.0053 8.14995,8.032934 8.08337,21.482368 0,29.535318 -8.26342,8.23232 -22.095131,8.16531 -30.375724,-0.004 -5.078447,-5.01019 -7.355937,-12.365513 -6.026035,-19.339991 l -0.17846,-0.03325 c -1.341259,7.034038 1.253628,14.497921 6.375849,19.551291 8.351958,8.23973 21.84744,8.23237 30.18273,-0.0715 8.15439,-8.12369 8.54673,-21.486127 0.32451,-29.590286 C 106.59377,76.2177 100.4749,74.168641 95.112465,74.161588 Z"
         id="path11041-7"
         sodipodi:nodetypes="ssssssssssssssssssssccssssssssssssssssssssssccssss" />
      <g
         aria-label="Career Consultions
"
         transform="matrix(0.26458333,0,0,0.26458333,-16.98171,-15.260961)"
         id="text11147"
         style="font-family:'Century Schoolbook Monospace';-inkscape-font-specification:'Century Schoolbook Monospace';white-space:pre;shape-inside:url(#rect11149);fill-opacity:0.854471;stroke-width:0.999999;paint-order:markers fill stroke">
        <path
           d="m 362.59592,231.40971 c -0.42,-0.48 -1.056,-0.744 -1.848,-0.744 -1.92,0 -3.372,1.776 -3.372,4.212 0,2.532 1.5,4.236 3.456,4.236 1.596,0 2.748,-1.092 2.952,-2.988 l -0.588,-0.072 c -0.312,1.644 -1.08,2.472 -2.244,2.472 -1.536,0 -2.232,-1.2 -2.232,-3.648 0,-2.448 0.72,-3.684 2.184,-3.684 1.092,0 1.86,0.96 2.16,2.808 h 0.516 l -0.132,-3.288 h -0.492 z"
           id="path12167" />
        <path
           d="m 369.83191,234.92571 c 0,-1.152 -0.516,-1.776 -2.184,-1.776 -1.428,0 -2.304,0.708 -2.304,1.536 0,0.432 0.252,0.684 0.696,0.684 0.384,0 0.636,-0.228 0.636,-0.6 0,-0.42 -0.3,-0.516 -0.3,-0.672 0,-0.216 0.384,-0.432 1.08,-0.432 0.84,0 1.284,0.324 1.284,0.864 v 0.864 c -2.544,0.408 -3.72,1.032 -3.72,2.232 0,0.888 0.648,1.464 1.644,1.464 0.864,0 1.74,-0.396 2.16,-0.96 0.096,0.564 0.456,0.888 1.008,0.888 0.672,0 1.116,-0.48 1.116,-0.732 0,-0.12 -0.06,-0.192 -0.156,-0.192 -0.108,0 -0.264,0.168 -0.504,0.168 -0.3,0 -0.456,-0.18 -0.456,-0.552 z m -1.092,0.96 v 0.852 c 0,1.188 -0.708,1.728 -1.596,1.728 -0.66,0 -0.948,-0.312 -0.948,-1.008 0,-0.912 0.816,-1.344 2.544,-1.572 z"
           id="path12169" />
        <path
           d="m 376.3959,238.39371 -1.284,-0.024 c -0.336,0 -0.396,-0.12 -0.396,-0.444 v -1.284 c 0,-1.812 1.104,-2.94 1.908,-2.94 0.036,0 0.108,0 0.24,0.024 -0.156,0.108 -0.24,0.3 -0.24,0.516 0,0.396 0.276,0.696 0.672,0.696 0.456,0 0.744,-0.3 0.744,-0.756 0,-0.588 -0.48,-1.02 -1.26,-1.02 -0.936,0 -1.68,0.6 -2.124,1.728 v -1.692 l -2.4,0.144 v 0.468 h 0.792 c 0.456,0 0.576,0.096 0.576,0.468 v 3.648 c 0,0.336 -0.06,0.432 -0.396,0.444 l -0.852,0.024 v 0.504 h 4.02 z"
           id="path12171" />
        <path
           d="m 380.7279,235.69371 c 0.048,-1.428 0.528,-2.052 1.632,-2.052 0.852,0 1.356,0.6 1.356,1.68 0,0.3 -0.12,0.372 -0.468,0.372 z m 0,0.516 h 4.272 c 0,-0.084 0.012,-0.168 0.012,-0.252 0,-1.74 -1.092,-2.808 -2.748,-2.808 -1.644,0 -2.808,1.2 -2.808,2.976 0,1.788 1.176,2.964 2.808,2.964 1.248,0 2.16,-0.564 2.736,-1.692 l -0.384,-0.24 c -0.504,0.864 -1.2,1.296 -2.136,1.296 -1.068,0 -1.752,-0.744 -1.752,-2.052 z"
           id="path12173" />
        <path
           d="m 387.95189,235.69371 c 0.048,-1.428 0.528,-2.052 1.632,-2.052 0.852,0 1.356,0.6 1.356,1.68 0,0.3 -0.12,0.372 -0.468,0.372 z m 0,0.516 h 4.272 c 0,-0.084 0.012,-0.168 0.012,-0.252 0,-1.74 -1.092,-2.808 -2.748,-2.808 -1.644,0 -2.808,1.2 -2.808,2.976 0,1.788 1.176,2.964 2.808,2.964 1.248,0 2.16,-0.564 2.736,-1.692 l -0.384,-0.24 c -0.504,0.864 -1.2,1.296 -2.136,1.296 -1.068,0 -1.752,-0.744 -1.752,-2.052 z"
           id="path12175" />
        <path
           d="m 398.06788,238.39371 -1.284,-0.024 c -0.336,0 -0.396,-0.12 -0.396,-0.444 v -1.284 c 0,-1.812 1.104,-2.94 1.908,-2.94 0.036,0 0.108,0 0.24,0.024 -0.156,0.108 -0.24,0.3 -0.24,0.516 0,0.396 0.276,0.696 0.672,0.696 0.456,0 0.744,-0.3 0.744,-0.756 0,-0.588 -0.48,-1.02 -1.26,-1.02 -0.936,0 -1.68,0.6 -2.124,1.728 v -1.692 l -2.4,0.144 v 0.468 h 0.792 c 0.456,0 0.576,0.096 0.576,0.468 v 3.648 c 0,0.336 -0.06,0.432 -0.396,0.444 l -0.852,0.024 v 0.504 h 4.02 z"
           id="path12177" />
        <path
           d="m 362.59592,246.40971 c -0.42,-0.48 -1.056,-0.744 -1.848,-0.744 -1.92,0 -3.372,1.776 -3.372,4.212 0,2.532 1.5,4.236 3.456,4.236 1.596,0 2.748,-1.092 2.952,-2.988 l -0.588,-0.072 c -0.312,1.644 -1.08,2.472 -2.244,2.472 -1.536,0 -2.232,-1.2 -2.232,-3.648 0,-2.448 0.72,-3.684 2.184,-3.684 1.092,0 1.86,0.96 2.16,2.808 h 0.516 l -0.132,-3.288 h -0.492 z"
           id="path12179" />
        <path
           d="m 364.92391,251.12571 c 0,1.8 1.188,2.964 2.832,2.964 1.656,0 2.832,-1.188 2.832,-2.964 0,-1.764 -1.176,-2.976 -2.832,-2.976 -1.656,0 -2.832,1.188 -2.832,2.976 z m 2.844,-2.484 c 1.104,0 1.548,0.804 1.548,2.484 0,1.68 -0.444,2.472 -1.548,2.472 -1.092,0 -1.56,-0.792 -1.56,-2.472 0,-1.68 0.468,-2.484 1.56,-2.484 z"
           id="path12181" />
        <path
           d="m 372.2199,253.36971 -0.456,0.024 v 0.504 h 2.844 v -0.504 l -0.504,-0.024 c -0.348,-0.012 -0.396,-0.108 -0.396,-0.444 v -1.98 c 0,-1.344 0.516,-2.004 1.536,-2.004 0.696,0 1.08,0.42 1.08,1.128 v 2.856 c 0,0.36 -0.084,0.432 -0.396,0.444 l -0.492,0.024 v 0.504 h 2.844 v -0.504 l -0.468,-0.024 c -0.324,-0.012 -0.396,-0.084 -0.396,-0.444 v -2.808 c 0,-1.26 -0.684,-1.92 -1.812,-1.92 -0.828,0 -1.416,0.36 -1.956,1.152 v -1.152 l -2.004,0.144 v 0.468 h 0.312 c 0.516,0 0.66,0.06 0.66,0.468 v 3.648 c 0,0.348 -0.072,0.432 -0.396,0.444 z"
           id="path12183" />
        <path
           d="m 380.7039,253.52571 c 0.468,0.372 1.128,0.588 1.8,0.588 1.38,0 2.196,-0.732 2.196,-1.872 0,-1.176 -0.816,-1.512 -2.208,-1.776 -1.092,-0.204 -1.8,-0.216 -1.8,-1.02 0,-0.396 0.408,-0.756 1.236,-0.756 0.972,0 1.704,0.552 1.992,1.512 h 0.372 v -1.992 h -0.372 l -0.348,0.42 c -0.528,-0.348 -1.044,-0.468 -1.668,-0.468 -1.2,0 -1.932,0.636 -1.932,1.62 0,1.308 0.984,1.572 2.34,1.836 0.888,0.18 1.608,0.228 1.608,0.96 0,0.612 -0.54,1.02 -1.368,1.02 -1.08,0 -1.92,-0.684 -2.22,-1.896 h -0.432 v 2.376 h 0.396 z"
           id="path12185" />
        <path
           d="m 390.69989,252.93771 v 1.104 l 2.052,-0.144 v -0.468 h -0.336 c -0.504,0 -0.684,-0.048 -0.684,-0.408 v -4.824 l -2.124,0.144 v 0.468 h 0.384 c 0.516,0 0.648,0.06 0.648,0.468 v 2.172 c 0,0.144 -0.012,0.216 -0.012,0.24 0,0.972 -0.588,1.668 -1.524,1.668 -0.732,0 -1.08,-0.372 -1.08,-1.128 v -4.032 l -2.124,0.144 v 0.468 h 0.372 c 0.516,0 0.648,0.06 0.648,0.468 v 2.904 c 0,1.26 0.684,1.92 1.812,1.92 0.84,0 1.416,-0.372 1.968,-1.164 z"
           id="path12187" />
        <path
           d="m 395.76388,253.36971 -1.56,0.024 v 0.504 h 4.992 v -0.504 l -1.524,-0.024 c -0.348,0 -0.408,-0.108 -0.408,-0.444 v -7.344 l -2.712,0.132 v 0.48 c 0.456,0 0.72,-0.012 0.804,-0.012 0.132,0 0.204,0.012 0.228,0.012 0.468,0 0.588,0.084 0.588,0.456 v 6.276 c 0,0.324 -0.06,0.444 -0.408,0.444 z"
           id="path12189" />
        <path
           d="m 402.32787,251.76171 c 0,1.5 0.288,2.34 1.716,2.34 1.428,0 2.256,-0.804 2.256,-2.076 v -0.3 h -0.432 c -0.072,1.128 -0.504,1.632 -1.44,1.632 -0.696,0 -1.008,-0.384 -1.008,-1.176 v -3.312 h 2.496 v -0.528 h -2.496 v -2.436 h -0.504 c -0.072,1.656 -0.66,2.484 -1.8,2.484 h -0.096 v 0.48 h 1.308 z"
           id="path12191" />
        <path
           d="m 411.84386,245.92971 c 0,-0.396 -0.336,-0.708 -0.708,-0.708 -0.384,0 -0.708,0.324 -0.708,0.708 0,0.372 0.3,0.708 0.708,0.708 0.396,0 0.708,-0.324 0.708,-0.708 z m -3.204,7.464 v 0.504 h 5.016 v -0.504 l -1.536,-0.024 c -0.348,0 -0.408,-0.108 -0.408,-0.444 v -4.728 l -2.94,0.144 v 0.468 h 1.308 c 0.432,0 0.54,0.12 0.54,0.468 v 3.648 c 0,0.324 -0.06,0.444 -0.408,0.444 z"
           id="path12193" />
        <path
           d="m 415.49185,251.12571 c 0,1.8 1.188,2.964 2.832,2.964 1.656,0 2.832,-1.188 2.832,-2.964 0,-1.764 -1.176,-2.976 -2.832,-2.976 -1.656,0 -2.832,1.188 -2.832,2.976 z m 2.844,-2.484 c 1.104,0 1.548,0.804 1.548,2.484 0,1.68 -0.444,2.472 -1.548,2.472 -1.092,0 -1.56,-0.792 -1.56,-2.472 0,-1.68 0.468,-2.484 1.56,-2.484 z"
           id="path12195" />
        <path
           d="m 422.78784,253.36971 -0.456,0.024 v 0.504 h 2.844 v -0.504 l -0.504,-0.024 c -0.348,-0.012 -0.396,-0.108 -0.396,-0.444 v -1.98 c 0,-1.344 0.516,-2.004 1.536,-2.004 0.696,0 1.08,0.42 1.08,1.128 v 2.856 c 0,0.36 -0.084,0.432 -0.396,0.444 l -0.492,0.024 v 0.504 h 2.844 v -0.504 l -0.468,-0.024 c -0.324,-0.012 -0.396,-0.084 -0.396,-0.444 v -2.808 c 0,-1.26 -0.684,-1.92 -1.812,-1.92 -0.828,0 -1.416,0.36 -1.956,1.152 v -1.152 l -2.004,0.144 v 0.468 h 0.312 c 0.516,0 0.66,0.06 0.66,0.468 v 3.648 c 0,0.348 -0.072,0.432 -0.396,0.444 z"
           id="path12197" />
        <path
           d="m 431.27184,253.52571 c 0.468,0.372 1.128,0.588 1.8,0.588 1.38,0 2.196,-0.732 2.196,-1.872 0,-1.176 -0.816,-1.512 -2.208,-1.776 -1.092,-0.204 -1.8,-0.216 -1.8,-1.02 0,-0.396 0.408,-0.756 1.236,-0.756 0.972,0 1.704,0.552 1.992,1.512 h 0.372 v -1.992 h -0.372 l -0.348,0.42 c -0.528,-0.348 -1.044,-0.468 -1.668,-0.468 -1.2,0 -1.932,0.636 -1.932,1.62 0,1.308 0.984,1.572 2.34,1.836 0.888,0.18 1.608,0.228 1.608,0.96 0,0.612 -0.54,1.02 -1.368,1.02 -1.08,0 -1.92,-0.684 -2.22,-1.896 h -0.432 v 2.376 h 0.396 z"
           id="path12199" />
      </g>
      <g
         aria-label="Audition Coaching
"
         transform="matrix(0.26458333,0,0,0.26458333,59.205489,-2.9103189)"
         id="text11159"
         style="font-family:'Century Schoolbook Monospace';-inkscape-font-specification:'Century Schoolbook Monospace';white-space:pre;shape-inside:url(#rect11161);fill-opacity:0.854471;stroke-width:0.999999;paint-order:markers fill stroke">
        <path
           d="m 111.14713,361.25465 -2.58,-7.08 h -0.492 l -2.37601,6.696 c -0.23999,0.672 -0.42,0.924 -0.99599,0.924 h -0.12001 v 0.564 h 2.71201 v -0.564 h -0.10801 c -0.59999,0 -0.88799,-0.096 -0.88799,-0.528 0,-0.144 0.048,-0.432 0.13199,-0.66 l 0.32401,-0.852 h 2.604 l 0.46799,1.38 c 0.06,0.168 0.084,0.3 0.084,0.396 0,0.276 -0.27599,0.252 -0.99599,0.264 v 0.564 h 3.11999 v -0.564 c -0.58799,-0.012 -0.708,-0.048 -0.88799,-0.54 z m -3.108,-5.292 1.14,3.18 h -2.244 z"
           id="path12202" />
        <path
           d="m 116.81112,361.39865 v 1.104 l 2.052,-0.144 v -0.468 h -0.336 c -0.504,0 -0.684,-0.048 -0.684,-0.408 v -4.824 l -2.124,0.144 v 0.468 h 0.384 c 0.516,0 0.648,0.06 0.648,0.468 v 2.172 c 0,0.144 -0.012,0.216 -0.012,0.24 0,0.972 -0.588,1.668 -1.524,1.668 -0.732,0 -1.08,-0.372 -1.08,-1.128 v -4.032 l -2.124,0.144 v 0.468 h 0.372 c 0.516,0 0.648,0.06 0.648,0.468 v 2.904 c 0,1.26 0.684,1.92 1.812,1.92 0.84,0 1.416,-0.372 1.968,-1.164 z"
           id="path12204" />
        <path
           d="m 124.03511,361.47065 v 1.02 l 1.944,-0.132 v -0.516 c -0.108,0 -0.204,0.012 -0.288,0.012 -0.456,0 -0.624,-0.084 -0.624,-0.456 v -7.356 l -2.268,0.132 v 0.48 c 0.144,0 0.24,-0.012 0.264,-0.012 0.12,0 0.204,0.012 0.228,0.012 0.54,0 0.684,0.048 0.684,0.456 v 2.388 c -0.468,-0.624 -1.008,-0.888 -1.752,-0.888 -1.392,0 -2.52,1.2 -2.52,2.976 0,1.764 1.104,2.94 2.508,2.94 0.768,0 1.356,-0.348 1.824,-1.056 z m -1.584,-4.2 c 1.14,0 1.524,0.768 1.524,2.292 0,1.524 -0.408,2.304 -1.512,2.304 -1.128,0 -1.524,-0.756 -1.524,-2.304 0,-1.548 0.444,-2.292 1.512,-2.292 z"
           id="path12206" />
        <path
           d="m 130.7311,354.39065 c 0,-0.396 -0.336,-0.708 -0.708,-0.708 -0.384,0 -0.708,0.324 -0.708,0.708 0,0.372 0.3,0.708 0.708,0.708 0.396,0 0.708,-0.324 0.708,-0.708 z m -3.204,7.464 v 0.504 h 5.016 v -0.504 l -1.536,-0.024 c -0.348,0 -0.408,-0.108 -0.408,-0.444 v -4.728 l -2.94,0.144 v 0.468 h 1.308 c 0.432,0 0.54,0.12 0.54,0.468 v 3.648 c 0,0.324 -0.06,0.444 -0.408,0.444 z"
           id="path12208" />
        <path
           d="m 135.66309,360.22265 c 0,1.5 0.288,2.34 1.716,2.34 1.428,0 2.256,-0.804 2.256,-2.076 v -0.3 h -0.432 c -0.072,1.128 -0.504,1.632 -1.44,1.632 -0.696,0 -1.008,-0.384 -1.008,-1.176 v -3.312 h 2.496 v -0.528 h -2.496 v -2.436 h -0.504 c -0.072,1.656 -0.66,2.484 -1.8,2.484 h -0.096 v 0.48 h 1.308 z"
           id="path12210" />
        <path
           d="m 145.17908,354.39065 c 0,-0.396 -0.336,-0.708 -0.708,-0.708 -0.384,0 -0.708,0.324 -0.708,0.708 0,0.372 0.3,0.708 0.708,0.708 0.396,0 0.708,-0.324 0.708,-0.708 z m -3.204,7.464 v 0.504 h 5.016 v -0.504 l -1.536,-0.024 c -0.348,0 -0.408,-0.108 -0.408,-0.444 v -4.728 l -2.94,0.144 v 0.468 h 1.308 c 0.432,0 0.54,0.12 0.54,0.468 v 3.648 c 0,0.324 -0.06,0.444 -0.408,0.444 z"
           id="path12212" />
        <path
           d="m 148.82707,359.58665 c 0,1.8 1.188,2.964 2.832,2.964 1.656,0 2.832,-1.188 2.832,-2.964 0,-1.764 -1.176,-2.976 -2.832,-2.976 -1.656,0 -2.832,1.188 -2.832,2.976 z m 2.844,-2.484 c 1.104,0 1.548,0.804 1.548,2.484 0,1.68 -0.444,2.472 -1.548,2.472 -1.092,0 -1.56,-0.792 -1.56,-2.472 0,-1.68 0.468,-2.484 1.56,-2.484 z"
           id="path12214" />
        <path
           d="m 156.12306,361.83065 -0.456,0.024 v 0.504 h 2.844 v -0.504 l -0.504,-0.024 c -0.348,-0.012 -0.396,-0.108 -0.396,-0.444 v -1.98 c 0,-1.344 0.516,-2.004 1.536,-2.004 0.696,0 1.08,0.42 1.08,1.128 v 2.856 c 0,0.36 -0.084,0.432 -0.396,0.444 l -0.492,0.024 v 0.504 h 2.844 v -0.504 l -0.468,-0.024 c -0.324,-0.012 -0.396,-0.084 -0.396,-0.444 v -2.808 c 0,-1.26 -0.684,-1.92 -1.812,-1.92 -0.828,0 -1.416,0.36 -1.956,1.152 v -1.152 l -2.004,0.144 v 0.468 h 0.312 c 0.516,0 0.66,0.06 0.66,0.468 v 3.648 c 0,0.348 -0.072,0.432 -0.396,0.444 z"
           id="path12216" />
        <path
           d="m 110.37913,369.87065 c -0.42,-0.48 -1.056,-0.744 -1.848,-0.744 -1.92,0 -3.372,1.776 -3.372,4.212 0,2.532 1.5,4.236 3.456,4.236 1.59599,0 2.74799,-1.092 2.952,-2.988 l -0.58801,-0.072 c -0.31199,1.644 -1.08,2.472 -2.244,2.472 -1.536,0 -2.232,-1.2 -2.232,-3.648 0,-2.448 0.72,-3.684 2.184,-3.684 1.092,0 1.86,0.96 2.16001,2.808 h 0.51599 l -0.13199,-3.288 h -0.492 z"
           id="path12218" />
        <path
           d="m 112.70712,374.58665 c 0,1.8 1.188,2.964 2.832,2.964 1.656,0 2.832,-1.188 2.832,-2.964 0,-1.764 -1.176,-2.976 -2.832,-2.976 -1.656,0 -2.832,1.188 -2.832,2.976 z m 2.844,-2.484 c 1.104,0 1.548,0.804 1.548,2.484 0,1.68 -0.444,2.472 -1.548,2.472 -1.092,0 -1.56,-0.792 -1.56,-2.472 0,-1.68 0.468,-2.484 1.56,-2.484 z"
           id="path12220" />
        <path
           d="m 124.83911,373.38665 c 0,-1.152 -0.516,-1.776 -2.184,-1.776 -1.428,0 -2.304,0.708 -2.304,1.536 0,0.432 0.252,0.684 0.696,0.684 0.384,0 0.636,-0.228 0.636,-0.6 0,-0.42 -0.3,-0.516 -0.3,-0.672 0,-0.216 0.384,-0.432 1.08,-0.432 0.84,0 1.284,0.324 1.284,0.864 v 0.864 c -2.544,0.408 -3.72,1.032 -3.72,2.232 0,0.888 0.648,1.464 1.644,1.464 0.864,0 1.74,-0.396 2.16,-0.96 0.096,0.564 0.456,0.888 1.008,0.888 0.672,0 1.116,-0.48 1.116,-0.732 0,-0.12 -0.06,-0.192 -0.156,-0.192 -0.108,0 -0.264,0.168 -0.504,0.168 -0.3,0 -0.456,-0.18 -0.456,-0.552 z m -1.092,0.96 v 0.852 c 0,1.188 -0.708,1.728 -1.596,1.728 -0.66,0 -0.948,-0.312 -0.948,-1.008 0,-0.912 0.816,-1.344 2.544,-1.572 z"
           id="path12222" />
        <path
           d="m 132.7831,375.81065 -0.456,-0.216 c -0.36,0.828 -0.9,1.224 -1.716,1.224 -1.272,0 -1.872,-0.756 -1.872,-2.328 0,-1.632 0.54,-2.4 1.752,-2.4 0.624,0 0.984,0.204 0.984,0.42 0,0.18 -0.384,0.24 -0.384,0.708 0,0.408 0.324,0.66 0.72,0.66 0.456,0 0.804,-0.312 0.804,-0.864 0,-0.768 -0.84,-1.404 -2.1,-1.404 -1.812,0 -3.048,1.212 -3.048,3.06 0,1.74 1.2,2.88 2.844,2.88 1.212,0 2.004,-0.552 2.472,-1.74 z"
           id="path12224" />
        <path
           d="m 134.84709,370.11065 v 6.276 c 0,0.348 -0.072,0.432 -0.396,0.444 l -0.516,0.024 v 0.504 h 2.928 v -0.504 l -0.516,-0.024 c -0.348,-0.012 -0.396,-0.108 -0.396,-0.444 v -1.98 c 0,-1.344 0.516,-2.004 1.536,-2.004 0.732,0 1.08,0.372 1.08,1.128 v 2.856 c 0,0.36 -0.084,0.432 -0.396,0.444 l -0.516,0.024 v 0.504 h 2.916 v -0.504 l -0.516,-0.024 c -0.324,-0.012 -0.396,-0.096 -0.396,-0.444 v -2.808 c 0,-1.26 -0.696,-1.92 -1.812,-1.92 -0.804,0 -1.428,0.348 -1.896,1.08 v -3.696 l -2.124,0.132 v 0.48 c 0.108,0 0.168,-0.012 0.192,-0.012 0.096,0 0.156,0.012 0.18,0.012 0.516,0 0.648,0.048 0.648,0.456 z"
           id="path12226" />
        <path
           d="m 145.17908,369.39065 c 0,-0.396 -0.336,-0.708 -0.708,-0.708 -0.384,0 -0.708,0.324 -0.708,0.708 0,0.372 0.3,0.708 0.708,0.708 0.396,0 0.708,-0.324 0.708,-0.708 z m -3.204,7.464 v 0.504 h 5.016 v -0.504 l -1.536,-0.024 c -0.348,0 -0.408,-0.108 -0.408,-0.444 v -4.728 l -2.94,0.144 v 0.468 h 1.308 c 0.432,0 0.54,0.12 0.54,0.468 v 3.648 c 0,0.324 -0.06,0.444 -0.408,0.444 z"
           id="path12228" />
        <path
           d="m 148.89907,376.83065 -0.456,0.024 v 0.504 h 2.844 v -0.504 l -0.504,-0.024 c -0.348,-0.012 -0.396,-0.108 -0.396,-0.444 v -1.98 c 0,-1.344 0.516,-2.004 1.536,-2.004 0.696,0 1.08,0.42 1.08,1.128 v 2.856 c 0,0.36 -0.084,0.432 -0.396,0.444 l -0.492,0.024 v 0.504 h 2.844 v -0.504 l -0.468,-0.024 c -0.324,-0.012 -0.396,-0.084 -0.396,-0.444 v -2.808 c 0,-1.26 -0.684,-1.92 -1.812,-1.92 -0.828,0 -1.416,0.36 -1.956,1.152 v -1.152 l -2.004,0.144 v 0.468 h 0.312 c 0.516,0 0.66,0.06 0.66,0.468 v 3.648 c 0,0.348 -0.072,0.432 -0.396,0.444 z"
           id="path12230" />
        <path
           d="m 160.47906,371.92265 -0.18,0.144 c -0.444,-0.324 -0.936,-0.456 -1.536,-0.456 -1.38,0 -2.292,0.792 -2.292,1.968 0,0.744 0.36,1.308 1.02,1.608 -0.744,0.108 -1.176,0.576 -1.176,1.212 0,0.588 0.276,0.912 0.924,1.068 -0.78,0.168 -1.212,0.612 -1.212,1.128 0,0.744 0.84,1.248 2.484,1.248 2.076,0 3.12,-0.696 3.12,-1.896 0,-1.092 -0.636,-1.476 -1.932,-1.476 h -0.648 l -0.972,0.024 h -0.12 c -0.564,0 -0.852,-0.084 -0.852,-0.444 0,-0.444 0.42,-0.54 1.14,-0.54 1.86,0 2.808,-0.732 2.808,-1.968 0,-0.48 -0.108,-0.84 -0.42,-1.188 l 0.24,-0.192 c 0.096,-0.084 0.168,-0.132 0.216,-0.132 0.156,0 0.012,0.648 0.636,0.648 0.324,0 0.54,-0.216 0.54,-0.516 0,-0.492 -0.264,-0.744 -0.72,-0.744 -0.396,0 -0.708,0.192 -1.068,0.504 z m -1.716,0.216 c 0.84,0 1.224,0.456 1.224,1.428 0,0.972 -0.372,1.428 -1.224,1.428 -0.828,0 -1.224,-0.456 -1.224,-1.404 0,-0.984 0.384,-1.452 1.224,-1.452 z m -0.768,5.316 h 1.476 c 0.756,0 1.26,0.12 1.26,0.78 0,0.732 -0.696,1.056 -2.16,1.056 -0.996,0 -1.512,-0.288 -1.512,-0.852 0,-0.528 0.408,-0.912 0.936,-0.984 z"
           id="path12232" />
      </g>
      <g
         aria-label="Self Tape Review
"
         id="text11204"
         style="font-size:3.175px;font-family:'Century Schoolbook Monospace';-inkscape-font-specification:'Century Schoolbook Monospace';text-align:center;text-anchor:middle;fill-opacity:0.854471;stroke-width:0.264583;paint-order:markers fill stroke">
        <path
           d="m 26.976473,89.928893 h 0.10795 l 0.117475,-0.206375 c 0.1143,0.127 0.333375,0.219075 0.56515,0.219075 0.460375,0 0.7112,-0.238125 0.7112,-0.650875 0,-0.428625 -0.250825,-0.568325 -0.6858,-0.67945 -0.37465,-0.09525 -0.574675,-0.127 -0.574675,-0.409575 0,-0.22225 0.142875,-0.346075 0.377825,-0.346075 0.327025,0 0.55245,0.22225 0.650875,0.657225 h 0.130175 l -0.02858,-0.7747 h -0.111125 l -0.111125,0.180975 c -0.13335,-0.136525 -0.320675,-0.20955 -0.549275,-0.20955 -0.346075,0 -0.5969,0.238125 -0.5969,0.60325 0,0.3937 0.225425,0.517525 0.67945,0.638175 0.358775,0.09525 0.57785,0.130175 0.57785,0.434975 0,0.257175 -0.168275,0.415925 -0.447675,0.415925 -0.37465,0 -0.606425,-0.24765 -0.688975,-0.739775 h -0.136525 z"
           id="path12235" />
        <path
           d="m 29.224371,89.043068 c 0.0127,-0.377825 0.1397,-0.542925 0.4318,-0.542925 0.225425,0 0.358774,0.15875 0.358774,0.4445 0,0.07937 -0.03175,0.09843 -0.123824,0.09843 z m 0,0.136525 h 1.130299 c 0,-0.02222 0.0032,-0.04445 0.0032,-0.06668 0,-0.460375 -0.288925,-0.74295 -0.727074,-0.74295 -0.434975,0 -0.74295,0.3175 -0.74295,0.7874 0,0.473075 0.31115,0.784225 0.74295,0.784225 0.3302,0 0.571499,-0.149225 0.723899,-0.447675 l -0.1016,-0.0635 c -0.13335,0.2286 -0.317499,0.3429 -0.565149,0.3429 -0.282575,0 -0.46355,-0.19685 -0.46355,-0.542925 z"
           id="path12237" />
        <path
           d="m 31.291293,89.751093 -0.41275,0.0063 v 0.13335 h 1.3208 v -0.13335 l -0.403225,-0.0063 c -0.09208,0 -0.10795,-0.02858 -0.10795,-0.117475 v -1.9431 l -0.71755,0.03493 v 0.127 c 0.12065,0 0.1905,-0.0032 0.212725,-0.0032 0.03492,0 0.05397,0.0032 0.06032,0.0032 0.123825,0 0.155575,0.02223 0.155575,0.12065 v 1.660525 c 0,0.08572 -0.01587,0.117475 -0.10795,0.117475 z"
           id="path12239" />
        <path
           d="m 32.774016,89.754268 v 0.136525 h 1.20015 v -0.1397 l -0.415925,-0.0032 c -0.0889,0 -0.104775,-0.02858 -0.104775,-0.1143 v -1.082675 h 0.5588 v -0.130175 h -0.5588 c 0,-0.0254 -0.0032,-0.0508 -0.0032,-0.07303 0,-0.352425 0.136525,-0.52705 0.422275,-0.52705 0.1143,0 0.174625,0.0063 0.174625,0.05715 0,0.03175 -0.0508,0.08255 -0.0508,0.149225 0,0.09525 0.07302,0.168275 0.168275,0.168275 0.09843,0 0.168275,-0.07302 0.168275,-0.187325 0,-0.18415 -0.1905,-0.314325 -0.48895,-0.314325 -0.454025,0 -0.682625,0.23495 -0.682625,0.708025 v 0.01905 h -0.4064 v 0.130175 h 0.4064 v 1.082675 c 0,0.0889 -0.01588,0.111125 -0.104775,0.1143 z"
           id="path12241" />
        <path
           d="m 37.730187,89.741568 h -0.06032 c -0.212725,0 -0.250825,-0.0063 -0.250825,-0.136525 v -1.571625 c 0,-0.14605 0.03175,-0.1524 0.130175,-0.1524 h 0.0381 c 0.238125,0 0.33655,0.219075 0.396875,0.701675 h 0.130175 l -0.04127,-0.822325 h -1.63195 l -0.0381,0.822325 h 0.127 c 0.05715,-0.47625 0.161925,-0.701675 0.390525,-0.701675 h 0.06668 c 0.1016,0 0.10795,0.04445 0.10795,0.1524 v 1.571625 c 0,0.130175 -0.0254,0.136525 -0.24765,0.136525 h -0.0635 v 0.149225 h 0.94615 z"
           id="path12243" />
        <path
           d="m 39.720909,88.839868 c 0,-0.3048 -0.136525,-0.4699 -0.57785,-0.4699 -0.377825,0 -0.6096,0.187325 -0.6096,0.4064 0,0.1143 0.06667,0.180975 0.18415,0.180975 0.1016,0 0.168275,-0.06032 0.168275,-0.15875 0,-0.111125 -0.07937,-0.136525 -0.07937,-0.1778 0,-0.05715 0.1016,-0.1143 0.28575,-0.1143 0.22225,0 0.339725,0.08572 0.339725,0.2286 v 0.2286 c -0.6731,0.10795 -0.98425,0.27305 -0.98425,0.59055 0,0.23495 0.17145,0.38735 0.434975,0.38735 0.2286,0 0.460375,-0.104775 0.5715,-0.254 0.0254,0.149225 0.12065,0.23495 0.2667,0.23495 0.1778,0 0.295275,-0.127 0.295275,-0.193675 0,-0.03175 -0.01588,-0.0508 -0.04128,-0.0508 -0.02857,0 -0.06985,0.04445 -0.13335,0.04445 -0.07937,0 -0.12065,-0.04762 -0.12065,-0.14605 z m -0.288925,0.254 v 0.225425 c 0,0.314325 -0.187325,0.4572 -0.422275,0.4572 -0.174625,0 -0.250825,-0.08255 -0.250825,-0.2667 0,-0.2413 0.2159,-0.3556 0.6731,-0.415925 z"
           id="path12245" />
        <path
           d="m 40.714682,88.658893 v -0.27305 l -0.51435,0.0381 v 0.136525 c 0.0254,0 0.04127,-0.0032 0.04445,-0.0032 h 0.0381 c 0.130175,0 0.161925,0.02222 0.161925,0.13335 v 1.60655 c 0,0.09208 -0.01905,0.111125 -0.104775,0.1143 l -0.1397,0.0064 v 0.13335 h 0.7747 v -0.13335 l -0.13335,-0.0064 c -0.09208,-0.0032 -0.104775,-0.0254 -0.104775,-0.1143 v -0.581025 c 0.123825,0.15875 0.257175,0.2286 0.4445,0.2286 0.4064,0 0.708025,-0.32385 0.708025,-0.7874 0,-0.479425 -0.3048,-0.7874 -0.6858,-0.7874 -0.20955,0 -0.3683,0.09525 -0.48895,0.288925 z m 0.434975,1.11125 c -0.307975,0 -0.41275,-0.206375 -0.41275,-0.606425 0,-0.40005 0.104775,-0.6096 0.4318,-0.6096 0.282575,0 0.3937,0.200025 0.3937,0.6096 0,0.409575 -0.12065,0.606425 -0.41275,0.606425 z"
           id="path12247" />
        <path
           d="m 42.603805,89.043068 c 0.0127,-0.377825 0.1397,-0.542925 0.4318,-0.542925 0.225425,0 0.358775,0.15875 0.358775,0.4445 0,0.07937 -0.03175,0.09843 -0.123825,0.09843 z m 0,0.136525 h 1.1303 c 0,-0.02222 0.0032,-0.04445 0.0032,-0.06668 0,-0.460375 -0.288925,-0.74295 -0.727075,-0.74295 -0.434975,0 -0.74295,0.3175 -0.74295,0.7874 0,0.473075 0.31115,0.784225 0.74295,0.784225 0.3302,0 0.5715,-0.149225 0.7239,-0.447675 l -0.1016,-0.0635 c -0.13335,0.2286 -0.3175,0.3429 -0.56515,0.3429 -0.282575,0 -0.46355,-0.19685 -0.46355,-0.542925 z"
           id="path12249" />
        <path
           d="m 46.220125,89.605043 c 0,0.130175 -0.0381,0.136525 -0.200025,0.136525 h -0.06985 v 0.149225 h 0.892175 v -0.149225 c -0.254,-0.0032 -0.29845,0.01587 -0.29845,-0.136525 v -0.74295 h 0.130175 c 0.27305,0 0.358775,0.1016 0.3937,0.4826 0.03493,0.390525 0.06032,0.600075 0.3556,0.600075 0.212725,0 0.3302,-0.155575 0.3302,-0.46355 v -0.0762 h -0.130175 c -0.0063,0.206375 -0.03493,0.307975 -0.09525,0.307975 -0.04445,0 -0.0762,-0.06668 -0.1016,-0.1905 l -0.06985,-0.3302 c -0.04762,-0.23495 -0.1778,-0.36195 -0.384175,-0.377825 0.38735,-0.03175 0.593725,-0.22225 0.593725,-0.530225 0,-0.33655 -0.212725,-0.523875 -0.62865,-0.523875 H 45.95025 v 0.149225 c 0.2286,0.0032 0.269875,-0.0095 0.269875,0.136525 z m 0.32385,-0.89535 v -0.720725 c 0,-0.07303 0.0508,-0.08572 0.17145,-0.08572 0.333375,0 0.511175,0.03175 0.511175,0.40005 0,0.3175 -0.15875,0.41275 -0.5207,0.41275 -0.0508,0 -0.1016,-0.0032 -0.161925,-0.0063 z"
           id="path12251" />
        <path
           d="m 48.337849,89.043068 c 0.0127,-0.377825 0.1397,-0.542925 0.4318,-0.542925 0.225425,0 0.358775,0.15875 0.358775,0.4445 0,0.07937 -0.03175,0.09843 -0.123825,0.09843 z m 0,0.136525 h 1.1303 c 0,-0.02222 0.0032,-0.04445 0.0032,-0.06668 0,-0.460375 -0.288925,-0.74295 -0.727075,-0.74295 -0.434975,0 -0.74295,0.3175 -0.74295,0.7874 0,0.473075 0.31115,0.784225 0.74295,0.784225 0.3302,0 0.5715,-0.149225 0.7239,-0.447675 l -0.1016,-0.0635 c -0.13335,0.2286 -0.3175,0.3429 -0.56515,0.3429 -0.282575,0 -0.46355,-0.19685 -0.46355,-0.542925 z"
           id="path12253" />
        <path
           d="m 50.058695,88.681118 0.549275,1.260475 h 0.09842 l 0.473075,-1.165225 c 0.06032,-0.14605 0.12065,-0.2159 0.269875,-0.22225 v -0.13335 h -0.61595 v 0.13335 c 0.01587,0 0.02857,-0.0032 0.04127,-0.0032 0.111125,0 0.168275,0.04762 0.168275,0.111125 0,0.03175 -0.0127,0.0762 -0.03175,0.127 l -0.282575,0.73025 -0.3429,-0.790575 c -0.02222,-0.0508 -0.03493,-0.08572 -0.03493,-0.1016 0,-0.0635 0.05715,-0.06985 0.1905,-0.07303 v -0.13335 h -0.7112 v 0.13335 c 0.1397,0 0.180975,0.02222 0.2286,0.127 z"
           id="path12255" />
        <path
           d="m 52.747919,87.782593 c 0,-0.104775 -0.0889,-0.187325 -0.187325,-0.187325 -0.1016,0 -0.187325,0.08572 -0.187325,0.187325 0,0.09842 0.07937,0.187325 0.187325,0.187325 0.104775,0 0.187325,-0.08573 0.187325,-0.187325 z m -0.847725,1.97485 v 0.13335 h 1.32715 v -0.13335 l -0.4064,-0.0063 c -0.09207,0 -0.10795,-0.02858 -0.10795,-0.117475 v -1.25095 l -0.777875,0.0381 v 0.123825 h 0.346075 c 0.1143,0 0.142875,0.03175 0.142875,0.123825 v 0.9652 c 0,0.08572 -0.01588,0.117475 -0.10795,0.117475 z"
           id="path12257" />
        <path
           d="m 54.071892,89.043068 c 0.0127,-0.377825 0.1397,-0.542925 0.4318,-0.542925 0.225425,0 0.358775,0.15875 0.358775,0.4445 0,0.07937 -0.03175,0.09843 -0.123825,0.09843 z m 0,0.136525 h 1.1303 c 0,-0.02222 0.0032,-0.04445 0.0032,-0.06668 0,-0.460375 -0.288925,-0.74295 -0.727075,-0.74295 -0.434975,0 -0.74295,0.3175 -0.74295,0.7874 0,0.473075 0.31115,0.784225 0.74295,0.784225 0.3302,0 0.5715,-0.149225 0.7239,-0.447675 l -0.1016,-0.0635 c -0.13335,0.2286 -0.3175,0.3429 -0.56515,0.3429 -0.282575,0 -0.46355,-0.19685 -0.46355,-0.542925 z"
           id="path12259" />
        <path
           d="m 55.932438,88.560468 0.0635,-0.0063 v -0.13335 h -0.53975 v 0.13335 c 0.1016,0 0.127,0.02858 0.155575,0.127 l 0.38735,1.260475 h 0.10795 l 0.27305,-1.016 0.2794,1.016 h 0.111125 l 0.327025,-1.165225 c 0.04128,-0.149225 0.09843,-0.22225 0.200025,-0.22225 h 0.0063 v -0.13335 h -0.4826 v 0.13335 c 0.02222,0 0.03493,0.0032 0.0381,0.0032 0.07303,0 0.1016,0.06032 0.1016,0.09842 0,0.06668 -0.01905,0.104775 -0.0254,0.13335 l -0.168275,0.6731 -0.206375,-0.733425 c -0.0127,-0.04762 -0.02222,-0.07937 -0.02222,-0.09842 0,-0.04445 0.0127,-0.06668 0.05715,-0.06985 l 0.09208,-0.0063 v -0.13335 h -0.574675 v 0.13335 h 0.03175 c 0.09208,0 0.127,0.02858 0.149225,0.127 l 0.0095,0.04762 -0.200025,0.739775 -0.22225,-0.777875 c -0.0064,-0.02222 -0.01588,-0.04445 -0.01588,-0.06032 0,-0.04762 0.0127,-0.06668 0.06667,-0.06985 z"
           id="path12261" />
      </g>
    </g>
  </g>
</svg>
