<?xml version="1.0" encoding="UTF-8" standalone="no"?>
<!-- Created with Inkscape (http://www.inkscape.org/) -->

<svg
   width="210mm"
   height="297mm"
   viewBox="0 0 210 297"
   version="1.1"
   id="svg21560"
   xmlns="http://www.w3.org/2000/svg"
   xmlns:svg="http://www.w3.org/2000/svg">
  <defs
     id="defs21557">
    <marker
       style="overflow:visible"
       id="TriangleStart"
       refX="0"
       refY="0"
       orient="auto-start-reverse"
       markerWidth="5.3244081"
       markerHeight="6.155385"
       viewBox="0 0 5.3244081 6.1553851"
       preserveAspectRatio="xMidYMid">
      <path
         transform="scale(0.5)"
         style="fill:context-stroke;fill-rule:evenodd;stroke:context-stroke;stroke-width:1pt"
         d="M 5.77,0 -2.88,5 V -5 Z"
         id="path135" />
    </marker>
  </defs>
  <g
     id="layer1">
    <g
       id="g51323">
      <path
         style="opacity:0.99;fill:#008080;fill-opacity:1;stroke-width:0.264583"
         id="path38435"
         d="m 89.641978,52.98441 c -0.03084,0.01148 -0.06273,0.02114 -0.09145,0.03759 -0.0069,0.0039 -0.01315,0.0087 -0.01974,0.01307 -0.0038,0.0052 -0.0094,0.0095 -0.01154,0.01558 -0.0058,0.01677 0.0047,0.02962 0.01725,0.03975 0.01291,0.0104 0.02723,0.01921 0.04218,0.02638 0.07209,0.03453 0.105704,0.0365 0.189682,0.05623 0.103516,0.01429 0.156896,0.02651 0.261133,0.02222 0.03586,-0.0016 0.07198,-0.0049 0.106818,-0.01349 0.04716,-0.01164 0.09411,-0.03174 0.114985,-0.0795 0.0079,-0.01797 0.0046,-0.03894 0.0069,-0.05841 -0.0097,-0.02114 -0.01632,-0.04401 -0.02918,-0.06339 -0.02682,-0.04039 -0.07234,-0.08077 -0.115459,-0.10287 -0.02143,-0.01098 -0.04453,-0.02027 -0.06844,-0.0232 -0.02336,-0.0029 -0.04866,-0.003 -0.07038,0.0061 -0.02611,0.01093 -0.04494,0.03439 -0.06741,0.05159 -0.01685,0.02759 -0.03766,0.05312 -0.05055,0.08276 -0.04081,0.0938 -0.04214,0.194445 0.0084,0.285036 0.04039,0.07245 0.06825,0.08126 0.133191,0.126762 0.02688,0.0093 0.05279,0.02217 0.08065,0.02792 0.02611,0.0054 0.05319,0.0061 0.07985,0.0052 0.02529,-7.94e-4 0.05041,-0.0052 0.0752,-0.01027 0.02355,-0.0048 0.04658,-0.01204 0.0695,-0.01931 0.04277,-0.01355 0.07078,-0.02606 0.111403,-0.04288 0.01302,-0.0055 0.02574,-0.0118 0.03905,-0.01656 0.0081,-0.0029 0.0371,-0.01558 0.04673,-2.64e-4 0.01214,0.01913 -0.0056,0.06101 -0.01175,0.07294 -0.01106,0.02159 -0.02649,0.04063 -0.03973,0.06094 -0.02212,0.02217 -0.04246,0.0463 -0.06637,0.06654 -0.02707,0.02291 -0.05601,0.04374 -0.0861,0.06251 -0.06692,0.04173 -0.116967,0.06677 -0.19643,0.07407 -0.03174,0.0029 -0.06487,0.0037 -0.09547,-0.0053 -0.03176,-0.0093 -0.05795,-0.03194 -0.08693,-0.04791 -0.06181,-0.06065 -0.0826,-0.07239 -0.125346,-0.147111 -0.01291,-0.02257 -0.02424,-0.04641 -0.0312,-0.07145 -0.0081,-0.02931 -0.01402,-0.07587 0.02048,-0.09546 0.01725,-0.0098 0.03908,-0.0068 0.05862,-0.01024 0.02868,0.0057 0.05798,0.0089 0.08602,0.0172 0.06611,0.01955 0.136758,0.05387 0.196998,0.08646 0.05472,0.0296 0.116962,0.06906 0.168847,0.104082 0.02207,0.0149 0.04354,0.03068 0.06532,0.04601 0.04426,0.03306 0.05661,0.04146 0.09737,0.07478 0.01143,0.0093 0.02244,0.01913 0.03375,0.02859 0.014,0.01172 0.03331,0.03026 0.05205,0.03579 0.0087,0.0026 0.01799,0.0011 0.02698,0.0016 0.01027,-0.0041 0.02148,-0.0062 0.03078,-0.0122 0.02701,-0.01738 0.055,-0.04987 0.06852,-0.0781 0.01876,-0.03917 0.02842,-0.0943 0.03015,-0.137165 7.94e-4,-0.02146 -0.0021,-0.04289 -0.0034,-0.06434 -0.0041,-0.01712 -0.0083,-0.03424 -0.01238,-0.05136 0,0 -5.3e-4,-2.64e-4 -5.3e-4,-2.64e-4 v 0 c 0.0042,0.01712 0.0083,0.03426 0.01244,0.05138 0.0011,0.02146 0.0042,0.04288 0.0034,0.06434 -0.0016,0.0429 -0.01138,0.09793 -0.03018,0.137105 -0.01355,0.02824 -0.04155,0.06065 -0.06859,0.078 -0.0093,0.006 -0.02053,0.0081 -0.03078,0.01214 -0.009,-5.3e-4 -0.01828,7.93e-4 -0.02695,-0.0016 -0.01828,-0.0052 -0.03729,-0.0236 -0.05072,-0.03484 -0.01132,-0.0095 -0.02236,-0.01929 -0.03379,-0.02862 -0.0408,-0.03334 -0.05318,-0.04175 -0.09748,-0.07484 -0.02209,-0.01556 -0.04387,-0.03155 -0.06626,-0.04666 -0.0518,-0.03496 -0.114171,-0.07448 -0.168794,-0.104023 -0.06026,-0.0326 -0.130958,-0.06695 -0.197086,-0.08652 -0.02808,-0.0083 -0.05743,-0.01151 -0.08614,-0.01728 -0.01958,0.0034 -0.04144,5.29e-4 -0.05872,0.01024 -0.03454,0.01963 -0.02855,0.06632 -0.0204,0.0956 0.007,0.02506 0.01834,0.04892 0.03126,0.07149 0.04303,0.07518 0.06376,0.08665 0.126209,0.14773 0.02899,0.01595 0.05518,0.03865 0.08696,0.0479 0.03059,0.0089 0.06372,0.0082 0.09545,0.0052 0.07947,-0.0073 0.129487,-0.03238 0.196432,-0.0741 0.03011,-0.01876 0.05906,-0.03958 0.08615,-0.06248 0.02394,-0.02024 0.04431,-0.04433 0.06646,-0.0665 0.01328,-0.02029 0.02875,-0.03932 0.03984,-0.06089 0.008,-0.01548 0.0241,-0.05317 0.01042,-0.07397 -0.0099,-0.01503 -0.03832,-0.0024 -0.04669,5.3e-4 -0.01331,0.0048 -0.02601,0.01106 -0.03901,0.01659 -0.04067,0.01688 -0.06849,0.02935 -0.111332,0.04293 -0.02291,0.0072 -0.04593,0.0145 -0.06948,0.01931 -0.02479,0.0051 -0.04989,0.0094 -0.07517,0.01027 -0.02665,7.94e-4 -0.05369,1.11e-4 -0.07982,-0.0052 -0.02752,-0.0056 -0.05314,-0.01818 -0.07971,-0.02728 -0.06495,-0.04549 -0.09282,-0.0543 -0.133228,-0.126743 -0.05051,-0.09056 -0.04923,-0.191225 -0.0084,-0.284999 0.01291,-0.02963 0.03372,-0.05514 0.05059,-0.08271 0.02249,-0.01717 0.04135,-0.0406 0.06745,-0.05152 0.02172,-0.0091 0.04699,-0.009 0.07036,-0.0061 0.02389,0.0029 0.04697,0.01225 0.06841,0.0232 0.04276,0.02185 0.08789,0.06214 0.114424,0.102111 0.01286,0.01937 0.01945,0.04222 0.02916,0.06333 -0.0024,0.01947 0.0011,0.04042 -0.0069,0.05839 -0.02082,0.04777 -0.06764,0.06792 -0.114784,0.0796 -0.03481,0.0086 -0.07091,0.01204 -0.106738,0.01355 -0.104286,0.0043 -0.157592,-0.0079 -0.261157,-0.02225 -0.08549,-0.02016 -0.116832,-0.02162 -0.189921,-0.05647 -0.01447,-0.0069 -0.02838,-0.01535 -0.04086,-0.02543 -0.01251,-0.01011 -0.02307,-0.02289 -0.01728,-0.03963 0.0021,-0.0061 0.0077,-0.01037 0.01148,-0.01556 0.0066,-0.0044 0.01286,-0.0092 0.01971,-0.01307 0.02873,-0.01646 0.06065,-0.02611 0.09153,-0.03751 0,0 -7.94e-4,-5.29e-4 -7.94e-4,-5.29e-4 z" />
      <path
         style="opacity:0.99;fill:#008080;fill-opacity:1;stroke-width:0.264583"
         id="path38486"
         d="m 90.681105,53.371625 c -0.0038,5.29e-4 -0.0076,5.29e-4 -0.01138,0.0013 -0.03605,0.0074 -0.07207,0.02088 -0.104709,0.0377 -0.0075,0.0039 -0.01479,0.0084 -0.02217,0.01257 -0.0054,0.0041 -0.02207,0.01339 -0.02291,0.0235 -0.0011,0.01236 0.01939,0.02148 0.02537,0.02424 0.03134,0.01447 0.05718,0.01886 0.09131,0.02741 0.02228,0.0029 0.04443,0.0073 0.06685,0.0088 0.04756,0.0031 0.09252,7.94e-4 0.139239,-0.0087 0.0342,-0.007 0.07483,-0.02027 0.104976,-0.03915 0.01175,-0.0074 0.02127,-0.01778 0.03192,-0.02668 0.0053,-0.01053 0.01333,-0.02005 0.01579,-0.03156 0.0056,-0.02619 -0.0049,-0.05854 -0.01683,-0.08075 -0.02048,-0.03804 -0.05267,-0.07258 -0.08389,-0.101481 -0.01892,-0.01752 -0.03973,-0.03283 -0.0596,-0.04925 -0.02035,-0.01357 -0.03965,-0.02884 -0.06102,-0.04073 -0.03452,-0.01921 -0.07177,-0.03512 -0.112446,-0.03185 -0.01572,0.0013 -0.03183,0.0056 -0.04516,0.01405 -0.01222,0.0077 -0.02371,0.019 -0.02862,0.03257 -0.0054,0.01508 -5.29e-4,0.03205 -5.29e-4,0.04808 0.01331,0.02008 0.02342,0.04272 0.03996,0.06022 0.04986,0.05276 0.134742,0.104905 0.195847,0.137745 0.04989,0.02681 0.101449,0.05043 0.153062,0.07375 0.114667,0.0518 0.195746,0.08174 0.311779,0.126963 0.03107,0.01185 0.162883,0.06036 0.203298,0.0814 0.01429,0.0074 0.03091,0.01434 0.03926,0.02811 0.01754,0.02889 -0.05405,0.05411 -0.05411,0.05414 -0.02846,0.01148 -0.05859,0.01826 -0.08789,0.02739 -0.03637,0.0076 -0.07245,0.01683 -0.109112,0.02291 -0.03758,0.0062 -0.07543,0.01135 -0.11344,0.014 -0.06866,0.0048 -0.135858,0.0043 -0.202782,-0.01413 -0.0286,-0.0079 -0.05825,-0.01638 -0.0824,-0.03362 -0.02684,-0.01916 -0.04457,-0.04862 -0.06685,-0.07293 -0.01762,-0.03373 -0.0385,-0.06596 -0.05286,-0.101201 -0.02798,-0.06867 -0.04657,-0.148044 -0.04555,-0.222744 7.94e-4,-0.05817 0.01312,-0.115666 0.05049,-0.161986 0.01445,-0.01791 0.0359,-0.02879 0.05385,-0.04319 0.0195,-0.0074 0.03829,-0.01714 0.05853,-0.02228 0.01762,-0.0045 0.03598,-0.0067 0.05415,-0.0063 0.01437,2.46e-4 0.02934,0.0021 0.0424,0.008 0.02394,0.01103 0.02744,0.0324 0.01037,0.05311 -0.01355,0.01646 -0.03325,0.02665 -0.04988,0.03998 -0.03119,0.01328 -0.061,0.03041 -0.09356,0.03987 -0.0467,0.01357 -0.09502,0.02103 -0.143015,0.02886 -0.08875,0.01447 -0.199551,0.02429 -0.289835,0.03149 -0.172532,0.01373 -0.04405,2.65e-4 -0.165097,0.01378 -7.94e-4,0.0051 -0.0066,0.01214 -0.0024,0.01516 0.03485,0.02532 0.212098,0.08843 0.217094,0.09026 0.128878,0.04706 0.292571,0.10251 0.421944,0.144645 0.06921,0.02254 0.138792,0.04395 0.20819,0.06592 0.06861,0.01886 0.224713,0.07017 0.30766,0.06667 0.02588,-0.0011 0.0637,-0.0024 0.07304,-0.02657 0.01405,-0.03637 -0.0048,-0.07891 -0.01812,-0.115576 -0.04001,-0.110418 -0.141002,-0.260884 -0.200753,-0.357309 -0.122753,-0.183033 -0.263903,-0.352623 -0.412086,-0.5154 -0.04158,-0.04567 -0.15322,-0.164677 -0.206843,-0.210757 -0.01659,-0.01426 -0.03626,-0.02447 -0.05439,-0.03672 -0.0079,2.06e-4 -0.0236,-0.0073 -0.02363,5.29e-4 -3.9e-5,0.01831 0.01315,0.03453 0.02349,0.04962 0.02437,0.03549 0.05196,0.0687 0.08007,0.10129 0.0894,0.103627 0.201308,0.217313 0.298294,0.311555 0.06103,0.05931 0.123925,0.116668 0.185888,0.175004 0.44699,0.40441 -0.06795,-0.06042 0.328046,0.294147 0.02784,0.02492 0.15435,0.135131 0.18655,0.178935 0.03732,0.05078 0.01291,0.04387 -0.0259,0.05717 -0.03374,-0.0043 -0.06773,-0.0069 -0.101237,-0.01275 -0.0764,-0.01339 -0.23562,-0.05123 -0.307478,-0.06836 -0.136869,-0.03264 -0.273354,-0.06682 -0.409641,-0.101793 -0.04442,0.01894 -0.08198,-0.04031 -0.124981,-0.03534 -0.0065,7.93e-4 0.0045,0.01265 0.009,0.01741 0.01781,0.01897 0.03816,0.03542 0.05723,0.05314 0.131963,0.122555 0.06395,0.05782 0.205753,0.19694 0.124801,0.127379 0.247658,0.257104 0.360365,0.395439 0.02759,0.03386 0.05114,0.06533 0.07726,0.09971 0.007,0.0066 0.0118,0.01704 0.02103,0.01982 0.0048,0.0013 0.01056,-0.0053 0.01077,-0.01032 7.93e-4,-0.01982 -0.0037,-0.03959 -0.0081,-0.05892 -0.0088,-0.03876 -0.01979,-0.07705 -0.03164,-0.115001 -0.04595,-0.147291 -0.07087,-0.204129 -0.128045,-0.352592 -0.05499,-0.131614 -0.08832,-0.215032 -0.147074,-0.342437 -0.0059,-0.01281 -0.05999,-0.153517 -0.105148,-0.171281 -0.01233,-0.0048 -0.02811,0.0068 -0.03558,0.01773 -0.01352,0.01979 -0.01535,0.04539 -0.02302,0.06809 -0.01,0.09152 -0.01371,0.09411 -0.01,0.187063 0.0011,0.02874 0.0032,0.05751 0.0071,0.08601 0.0054,0.03929 0.01572,0.0931 0.03874,0.127852 0.0094,0.01421 0.02432,0.02387 0.03647,0.0358 0.01654,0.004 0.03257,0.01222 0.04959,0.01212 0.04625,-2.62e-4 0.09909,-0.02796 0.136935,-0.04858 0.05188,-0.02826 0.120819,-0.07451 0.168756,-0.108723 0.02487,-0.01775 0.0489,-0.03663 0.07335,-0.05495 0.04918,-0.03983 0.09853,-0.08104 0.13671,-0.132061 0.0071,-0.0094 0.01744,-0.0182 0.01892,-0.0299 0.0042,-0.03301 -0.05715,-0.04637 -0.06793,-0.0513 -0.03362,-0.0086 -0.06696,-0.01844 -0.100867,-0.02582 -0.04529,-0.0099 -0.09098,-0.01781 -0.136605,-0.02593 -0.09632,-0.01712 -0.183494,-0.03015 -0.279902,-0.04489 -0.03697,-0.0057 -0.07402,-0.0108 -0.110924,-0.01683 -0.02487,-0.0041 -0.04959,-0.009 -0.07439,-0.01352 -0.0089,-0.0026 -0.0357,-0.0055 -0.0267,-0.0078 0.0136,-0.0033 0.02795,0.0021 0.04184,0.004 0.03543,0.0046 0.07078,0.0098 0.10609,0.01527 0.0544,0.0084 0.108725,0.01723 0.163036,0.02614 0.07648,0.01257 0.320548,0.05381 0.396341,0.06659 0.228179,0.03842 0.116546,0.01955 0.322154,0.0544 0.02994,0.0051 0.05948,0.01439 0.08984,0.01521 0.0045,1.24e-4 0.0083,-0.0097 0.0049,-0.01262 -0.01979,-0.01712 -0.04408,-0.02823 -0.06688,-0.04106 -0.03724,-0.02096 -0.07542,-0.04018 -0.113131,-0.06027 -0.162922,-0.08507 -0.327096,-0.168076 -0.484433,-0.263292 -0.06516,-0.03943 -0.07372,-0.04612 -0.1318,-0.08536 -0.01635,-0.01233 -0.04538,-0.03248 -0.06044,-0.04918 -0.0038,-0.0042 -0.0072,-0.0092 -0.009,-0.0146 -5.29e-4,-0.0021 1.96e-4,-0.0061 0.0024,-0.0059 0.0044,2.54e-4 0.0086,0.0034 0.01156,0.0067 0.0071,0.0081 0.01191,0.01791 0.01783,0.02685 0.0065,0.0173 0.01508,0.03398 0.01958,0.05192 0.01498,0.05982 0.01566,0.108079 0.01148,0.17027 -0.0038,0.05725 -0.0163,0.140419 -0.03478,0.195352 -0.0095,0.02831 -0.02458,0.05444 -0.03689,0.08166 -0.02098,0.01939 -0.03771,0.04479 -0.06297,0.05815 -0.07936,0.04196 -0.167709,0.02905 -0.250552,0.0058 -0.06643,-0.01863 -0.130075,-0.04664 -0.192556,-0.07589 -0.153752,-0.07197 -0.226499,-0.126069 -0.366348,-0.217276 -0.08237,-0.06379 -0.152172,-0.109929 -0.219789,-0.18752 -0.01646,-0.01889 -0.03124,-0.03986 -0.04136,-0.06278 -0.0109,-0.02466 -0.009,-0.0482 0.0154,-0.06148 0.0088,-0.0048 0.01968,-0.0036 0.02953,-0.0054 0.0076,0.0069 0.01931,0.01109 0.02273,0.02077 0.01805,0.05105 -0.02003,0.09705 -0.0477,0.134501 -0.02658,0.03598 -0.05645,0.06963 -0.0883,0.101028 -0.07091,0.0699 -0.15363,0.129056 -0.232553,0.189154 -0.03014,0.02222 -0.137597,0.09841 -0.169717,0.131863 -0.02893,0.03014 -0.04976,0.06088 -0.03424,0.104066 0.01931,0.05372 0.082,0.103872 0.118242,0.139496 0.0384,0.03037 0.07577,0.06208 0.115194,0.0911 0.09851,0.07251 0.192154,0.132032 0.296945,0.195138 0.07295,0.04393 0.181139,0.105037 0.25868,0.145711 0.02939,0.01543 0.05942,0.02958 0.08913,0.04436 0.01638,0.0056 0.03186,0.01611 0.04916,0.01675 0.005,1.82e-4 0.0034,-0.01111 2.51e-4,-0.01492 -0.01349,-0.01617 -0.03083,-0.02879 -0.04751,-0.04165 -0.05791,-0.04467 -0.126034,-0.08611 -0.184758,-0.128892 -0.03677,-0.02679 -0.07217,-0.05541 -0.108254,-0.08312 -0.07117,-0.06256 -0.127866,-0.104277 -0.182211,-0.182602 -0.02101,-0.03029 -0.03756,-0.06373 -0.05173,-0.09777 -0.03539,-0.08501 -0.04192,-0.177784 -0.05184,-0.268065 -0.0044,-0.02553 -0.0049,-0.05206 -0.01318,-0.0766 -0.01831,-0.05405 -0.0529,-0.09775 -0.09231,-0.1377 -0.03454,-0.03502 -0.08175,-0.06979 -0.122595,-0.09735 -0.01733,-0.0117 -0.03543,-0.02217 -0.05314,-0.03325 -0.0073,-0.0241 -0.04992,-0.01683 -0.06216,-0.03776 -0.0019,-0.0032 0.0069,-0.0035 0.01058,-0.0035 0.01228,8e-5 0.02447,0.0024 0.03667,0.0038 0.189024,0.02437 -0.09215,-0.0095 0.10845,0.01429 0.01757,7.94e-4 0.03512,0.0026 0.05268,0.0021 0.01431,-5.29e-4 0.02872,-0.0019 0.04263,-0.0053 0.0099,-0.0024 0.02016,-0.0058 0.02829,-0.01204 0.01405,-0.01082 0.01281,-0.02582 7.94e-4,-0.03763 -0.0091,-0.0088 -0.02135,-0.0136 -0.03202,-0.0204 -0.02164,-0.0024 -0.04315,-0.0077 -0.06493,-0.0073 -0.05466,0.0011 -0.122161,0.0155 -0.172368,0.0361 -0.05062,0.02077 -0.108344,0.05477 -0.140557,0.101317 -0.01598,0.0231 -0.02215,0.05164 -0.0332,0.07746 7.94e-4,0.03158 -0.0039,0.0638 0.0024,0.09475 0.01534,0.07496 0.05785,0.144481 0.103004,0.204367 0.04176,0.05537 0.09813,0.111078 0.152157,0.154919 0.02159,0.01751 0.04529,0.03227 0.06793,0.04841 0.04157,0.0222 0.05853,0.03504 0.102089,0.04619 0.01857,0.0048 0.03867,0.0066 0.0573,7.94e-4 0.01508,-0.0048 0.01852,-0.01093 0.02862,-0.02162 0,0 -7.93e-4,-5.29e-4 -7.93e-4,-5.29e-4 v 0 c -0.01008,0.01066 -0.01349,0.0168 -0.02856,0.02159 -0.0186,0.0059 -0.03863,0.004 -0.05719,-7.94e-4 -0.04303,-0.01098 -0.06001,-0.02368 -0.10098,-0.04541 -0.02267,-0.01614 -0.04639,-0.03091 -0.06801,-0.04844 -0.05406,-0.04385 -0.110458,-0.09955 -0.152236,-0.154948 -0.04515,-0.05987 -0.0876,-0.129336 -0.102915,-0.204285 -0.0063,-0.03094 -0.0016,-0.06313 -0.0024,-0.0947 0.01106,-0.02582 0.0172,-0.05434 0.03319,-0.07744 0.03221,-0.04656 0.08989,-0.08055 0.140513,-0.101314 0.05025,-0.02061 0.11775,-0.03508 0.17245,-0.036 0.0218,-2.64e-4 0.04334,0.0049 0.065,0.0074 0.01021,0.0065 0.02201,0.01093 0.03065,0.01939 0.01201,0.01177 0.01347,0.02665 -5.29e-4,0.03753 -0.0081,0.0063 -0.01828,0.0096 -0.02823,0.01206 -0.01389,0.0034 -0.02829,0.0048 -0.04258,0.0054 -0.01757,5.29e-4 -0.03511,-0.0013 -0.05267,-0.0021 -0.193707,-0.02299 0.07423,0.0093 -0.108521,-0.01437 -0.01222,-0.0016 -0.02447,-0.0041 -0.03679,-0.0039 -0.0034,6.4e-5 -0.01103,0.0019 -0.0092,0.0047 0.0044,0.0071 0.01365,0.0097 0.0208,0.01397 0.01355,0.0082 0.0275,0.01577 0.04125,0.02365 0.01736,0.01082 0.0351,0.02106 0.05206,0.03248 0.04085,0.02754 0.08811,0.06236 0.122648,0.09736 0.03941,0.03994 0.07399,0.08361 0.09229,0.137652 0.0083,0.02455 0.0088,0.05108 0.0132,0.07662 0.0099,0.09031 0.01651,0.183107 0.05194,0.268142 0.01418,0.03405 0.03075,0.0675 0.05178,0.09781 0.05437,0.07833 0.111075,0.120071 0.182261,0.18264 0.03629,0.02785 0.07189,0.05662 0.108858,0.08356 0.06013,0.04382 0.124822,0.08278 0.18384,0.128294 0.01662,0.01281 0.03385,0.0254 0.04734,0.04148 0.0032,0.0038 0.0049,0.01508 -1.6e-5,0.0149 -0.01722,-5.29e-4 -0.03265,-0.01106 -0.04898,-0.01659 -0.02967,-0.01474 -0.05966,-0.02887 -0.089,-0.04425 -0.07751,-0.04063 -0.18561,-0.101659 -0.258522,-0.145564 -0.104568,-0.06296 -0.198305,-0.122547 -0.296582,-0.19491 -0.03937,-0.02899 -0.07669,-0.06068 -0.115038,-0.09102 -0.03622,-0.03563 -0.09872,-0.08565 -0.118025,-0.139319 -0.01553,-0.04316 0.0052,-0.07393 0.03405,-0.104124 0.03222,-0.03369 0.139136,-0.109591 0.16951,-0.132017 0.07859,-0.05987 0.16193,-0.119591 0.232601,-0.189127 0.03189,-0.03137 0.0618,-0.065 0.08844,-0.100935 0.02663,-0.03592 0.06653,-0.08404 0.04803,-0.134419 -0.0037,-0.01016 -0.01611,-0.01447 -0.02416,-0.0217 -0.0098,0.0019 -0.02077,5.29e-4 -0.02957,0.0054 -0.0245,0.01336 -0.02622,0.03698 -0.01527,0.06168 0.01019,0.02296 0.02503,0.04397 0.04155,0.0629 0.0678,0.07768 0.137626,0.123828 0.22017,0.187722 0.139997,0.0913 0.21244,0.145198 0.366348,0.217279 0.06255,0.02929 0.126248,0.05735 0.192736,0.07604 0.08293,0.02331 0.17136,0.03637 0.250833,-0.0056 0.02527,-0.01336 0.04198,-0.03878 0.06296,-0.05818 0.01228,-0.02723 0.02734,-0.05337 0.03686,-0.08169 0.01847,-0.0549 0.03092,-0.138144 0.0348,-0.195355 0.0042,-0.06219 0.0036,-0.11036 -0.0113,-0.170193 -0.0045,-0.01794 -0.01296,-0.03459 -0.01947,-0.05188 -0.0064,-0.0093 -0.01172,-0.01947 -0.01926,-0.0279 -0.003,-0.0033 -0.0072,-0.0064 -0.0117,-0.0066 -0.0021,-8.7e-5 -0.003,0.004 -0.0024,0.006 0.0019,0.0054 0.0052,0.0104 0.009,0.01466 0.01532,0.01699 0.0452,0.03763 0.06168,0.05003 0.05803,0.03917 0.06654,0.04583 0.131638,0.0852 0.157343,0.09517 0.321514,0.178131 0.484386,0.263245 0.03777,0.02016 0.07599,0.03947 0.113305,0.06044 0.02236,0.01257 0.04625,0.02334 0.06565,0.04011 0.0034,0.003 1.6e-5,0.01289 -0.0045,0.01278 -0.03029,-7.94e-4 -0.05976,-0.01 -0.08964,-0.01505 -0.379174,-0.06388 0.119745,0.02 -0.321956,-0.05422 -0.05908,-0.01 -0.336576,-0.05683 -0.39647,-0.0667 -0.05438,-0.009 -0.10878,-0.01789 -0.163248,-0.02633 -0.03539,-0.0055 -0.07079,-0.01103 -0.106328,-0.01548 -0.01347,-0.0016 -0.02772,-0.0072 -0.04059,-0.0029 -0.0087,0.0029 0.01767,0.0051 0.02653,0.0076 0.02474,0.0045 0.04943,0.0094 0.07426,0.01341 0.03688,0.006 0.0739,0.01114 0.110839,0.01678 0.09644,0.01471 0.183552,0.02772 0.279887,0.04488 0.04568,0.0081 0.09141,0.01611 0.136729,0.02604 0.03396,0.0074 0.06734,0.0173 0.101015,0.02598 0.01125,0.0051 0.0708,0.01765 0.06673,0.05034 -0.0016,0.01169 -0.0118,0.02048 -0.01887,0.02993 -0.03809,0.05107 -0.0874,0.09231 -0.136535,0.132167 -0.02445,0.01834 -0.04846,0.03722 -0.07332,0.05497 -0.04811,0.03435 -0.116721,0.08035 -0.168818,0.108664 -0.03881,0.02109 -0.09007,0.04784 -0.13703,0.04844 -0.01654,2.12e-4 -0.03223,-0.0075 -0.04835,-0.01127 -0.01217,-0.01193 -0.0271,-0.02159 -0.03652,-0.0358 -0.02307,-0.03476 -0.03344,-0.08858 -0.03886,-0.127894 -0.0039,-0.02851 -0.006,-0.05728 -0.0072,-0.08603 -0.0037,-0.09297 -1.3e-5,-0.09547 0.01008,-0.186989 0.0077,-0.02265 0.0099,-0.04802 0.0231,-0.06795 0.0072,-0.01082 0.02223,-0.02326 0.03434,-0.01852 0.04537,0.01767 0.09959,0.158499 0.105601,0.171509 0.05903,0.127801 0.09199,0.210399 0.147195,0.342503 0.05711,0.148471 0.08194,0.205083 0.127699,0.352393 0.01177,0.0379 0.02262,0.07614 0.03139,0.114848 0.0044,0.01926 0.0083,0.03899 0.0079,0.05874 -9e-5,0.0048 -0.0046,0.01257 -0.0092,0.01125 -0.0093,-0.0026 -0.0141,-0.01323 -0.02114,-0.01984 -0.02611,-0.03432 -0.04992,-0.06605 -0.07746,-0.09982 -0.112837,-0.138338 -0.235768,-0.268108 -0.360611,-0.395566 -0.141817,-0.139207 -0.07355,-0.07418 -0.205415,-0.19677 -0.019,-0.01767 -0.03921,-0.0341 -0.05699,-0.05298 -0.0045,-0.0048 -0.01569,-0.01656 -0.0092,-0.01733 0.0429,-0.0051 0.08047,0.0541 0.124741,0.03512 0.136234,0.03488 0.272661,0.06899 0.409453,0.101626 0.07138,0.01704 0.231775,0.05519 0.307716,0.06857 0.03358,0.0059 0.06765,0.0086 0.101473,0.01291 0.03906,-0.01347 0.06329,-0.0065 0.02574,-0.05743 -0.03232,-0.04384 -0.159026,-0.154139 -0.186968,-0.17915 -0.38394,-0.343662 0.104629,0.09732 -0.328057,-0.29415 -0.06197,-0.05834 -0.124857,-0.115697 -0.185891,-0.175006 -0.09728,-0.09453 -0.208428,-0.207444 -0.297974,-0.311386 -0.02802,-0.03252 -0.05548,-0.06571 -0.07976,-0.10111 -0.01032,-0.01503 -0.02347,-0.03117 -0.02347,-0.0494 -8e-6,-0.0078 0.01561,-5.29e-4 0.02344,-7.94e-4 0.01786,0.01201 0.03723,0.02204 0.05355,0.03607 0.05392,0.04634 0.165246,0.164883 0.207169,0.21092 0.148212,0.162753 0.289311,0.332386 0.412086,0.515403 0.06006,0.09694 0.16029,0.24611 0.200393,0.357095 0.01323,0.03662 0.03202,0.07908 0.01802,0.115409 -0.0093,0.02413 -0.04699,0.02558 -0.07283,0.02671 -0.08298,0.0036 -0.23876,-0.04758 -0.307398,-0.06644 -0.0694,-0.02196 -0.138975,-0.04338 -0.208188,-0.06592 -0.130392,-0.04246 -0.292351,-0.09732 -0.422111,-0.144796 -0.04931,-0.01804 -0.09855,-0.03632 -0.147055,-0.05642 -0.0236,-0.0098 -0.04839,-0.0182 -0.06908,-0.03317 -0.0042,-0.003 0.0016,-0.01013 0.0024,-0.01519 0.118411,-0.01347 -0.0033,-5.29e-4 0.164809,-0.01402 0.09034,-0.0072 0.200988,-0.01709 0.289806,-0.03151 0.04805,-0.0078 0.09642,-0.01521 0.143187,-0.02873 0.0326,-0.0094 0.06248,-0.02651 0.09371,-0.03977 0.01667,-0.01331 0.03643,-0.02349 0.05003,-0.03993 0.01802,-0.0218 0.01286,-0.04269 -0.01167,-0.05409 -0.01304,-0.0061 -0.028,-0.0077 -0.04237,-0.008 -0.01818,-2.64e-4 -0.03653,0.0019 -0.05413,0.0064 -0.02024,0.0052 -0.03901,0.0149 -0.05851,0.02233 -0.01794,0.01442 -0.03939,0.02532 -0.05383,0.04323 -0.03734,0.04637 -0.04961,0.103913 -0.05038,0.162094 -0.0011,0.07469 0.0176,0.154102 0.04556,0.222772 0.01434,0.03523 0.03519,0.06745 0.05279,0.101179 0.02257,0.02453 0.04061,0.05419 0.06774,0.07356 0.02413,0.01723 0.05378,0.02574 0.08237,0.03358 0.06693,0.01839 0.13407,0.01887 0.202729,0.01405 0.03801,-0.0027 0.07586,-0.0078 0.113453,-0.014 0.03669,-0.0061 0.07279,-0.01524 0.109189,-0.02286 0.02934,-0.0091 0.05952,-0.01585 0.08803,-0.02729 0.01717,-0.0069 0.03516,-0.01437 0.04824,-0.02745 0.0065,-0.0065 0.0108,-0.01902 0.006,-0.02681 -0.0087,-0.01408 -0.02569,-0.02119 -0.04036,-0.02884 -0.03969,-0.02069 -0.173054,-0.06973 -0.203049,-0.08117 -0.11615,-0.04524 -0.196956,-0.07505 -0.311746,-0.126934 -0.05165,-0.02334 -0.103245,-0.04704 -0.15318,-0.07386 -0.06108,-0.03282 -0.145264,-0.08453 -0.195017,-0.137192 -0.01651,-0.01749 -0.02658,-0.04009 -0.03988,-0.06013 1.99e-4,-0.01601 -0.0049,-0.03297 5.29e-4,-0.04802 0.0049,-0.01357 0.01638,-0.02484 0.02858,-0.03255 0.01331,-0.0084 0.02941,-0.01278 0.04511,-0.01405 0.04071,-0.0033 0.07779,0.01262 0.112358,0.03181 0.02101,0.01167 0.03999,0.02667 0.05999,0.04 0.01987,0.0164 0.04067,0.03174 0.05958,0.04924 0.0312,0.02888 0.06332,0.06338 0.08379,0.101393 0.01193,0.0222 0.02241,0.05451 0.01683,0.08067 -0.0024,0.01151 -0.0105,0.02103 -0.01577,0.03155 -0.01061,0.0089 -0.02013,0.01934 -0.03187,0.02669 -0.03012,0.01889 -0.07071,0.0322 -0.104897,0.03918 -0.04672,0.0095 -0.09168,0.0118 -0.139232,0.0087 -0.02244,-0.0016 -0.0446,-0.0059 -0.06689,-0.0088 -0.03587,-0.009 -0.05882,-0.01267 -0.09141,-0.02753 -0.0062,-0.0028 -0.02487,-0.01122 -0.02394,-0.0231 7.93e-4,-0.01011 0.01738,-0.01942 0.02283,-0.02349 0.0074,-0.0042 0.01461,-0.0087 0.02215,-0.01257 0.03264,-0.01685 0.06868,-0.03035 0.104759,-0.03763 0.0038,-7.94e-4 0.0076,-0.0011 0.0114,-0.0013 0,0 -7.93e-4,-5.29e-4 -7.93e-4,-5.29e-4 z" />
      <path
         style="opacity:0.99;fill:#800008;fill-opacity:1;stroke-width:0.161169;stroke-dasharray:none;paint-order:stroke fill markers"
         d="m 366.55769,212.73847 c -5.34847,-16.74056 -9.66896,-30.4929 -9.60109,-30.56076 0.0679,-0.0679 1.52617,0.69776 3.24068,1.7014 6.24819,3.65754 11.80033,10.15535 14.36918,16.81661 2.91772,7.56589 3.78894,13.99377 3.46167,25.54027 -0.19515,6.88521 -1.09918,16.29307 -1.61524,16.80913 -0.0719,0.0719 -4.50674,-13.5661 -9.8552,-30.30665 z"
         id="path46057"
         transform="scale(0.26458333)" />
      <g
         id="g51304">
        <path
           style="opacity:0.99;fill:#800008;fill-opacity:1;stroke-width:0.161169;stroke-dasharray:none;paint-order:stroke fill markers"
           d="m 352.12831,270.04796 -7.31092,-23.04252 0.82468,-5.02861 c 1.21171,-7.38853 1.2242,-19.86253 0.0242,-24.19933 -2.05094,-7.41227 -5.52428,-11.37659 -12.19955,-13.92402 l -2.88702,-1.10174 -4.37265,-13.67687 c -2.40495,-7.52228 -4.37338,-13.73838 -4.37427,-13.81355 -8.9e-4,-0.0752 1.58239,-0.0242 3.51841,0.11325 8.31641,0.59051 8.90001,0.6785 9.08334,1.36949 0.15559,0.5864 0.18208,0.58182 0.22321,-0.0386 0.0498,-0.75073 0.38635,-0.87463 1.07619,-0.39613 0.23436,0.16256 2.16024,5.72646 4.27974,12.36423 2.80403,8.78157 3.75243,12.26042 3.48206,12.77268 -0.24087,0.45638 -0.22509,0.704 0.0449,0.704 0.22904,0 0.41644,-0.21563 0.41644,-0.47918 0,-0.26355 0.25141,-0.13536 0.55868,0.28487 0.30728,0.42022 0.47227,0.98924 0.36665,1.26449 -0.10563,0.27525 -0.0455,0.7354 0.13368,1.02257 0.17915,0.28717 0.37115,0.81313 0.42666,1.1688 0.0555,0.35567 5.14234,16.40799 11.30405,35.67181 l 11.20312,35.02514 -2.06772,4.77829 c -1.93335,4.46779 -4.70433,9.8501 -5.91439,11.48799 -0.45915,0.6215 -1.48886,-2.31112 -7.83951,-22.32704 z m 12.90523,1.54084 c -0.61602,-1.89158 -1.19088,-3.3684 -1.27746,-3.28182 -0.0866,0.0866 0.3466,1.70507 0.96262,3.59665 0.61602,1.89159 1.19088,3.36841 1.27746,3.28183 0.0866,-0.0866 -0.3466,-1.70508 -0.96262,-3.59666 z m -3.21832,-10.05722 c -0.61601,-1.89159 -1.19087,-3.36841 -1.27745,-3.28183 -0.0866,0.0866 0.3466,1.70508 0.96262,3.59666 0.61602,1.89158 1.19087,3.3684 1.27746,3.28182 0.0866,-0.0866 -0.3466,-1.70507 -0.96263,-3.59665 z m -3.01578,-9.45518 c -0.50308,-1.562 -0.98615,-2.76855 -1.07349,-2.68121 -0.0873,0.0873 0.25281,1.4368 0.75589,2.99881 0.50308,1.562 0.98615,2.76855 1.07349,2.68121 0.0873,-0.0873 -0.25281,-1.4368 -0.75589,-2.99881 z m -3.01855,-9.45241 c -0.61602,-1.89158 -1.19087,-3.3684 -1.27745,-3.28182 -0.0866,0.0866 0.3466,1.70508 0.96262,3.59666 0.61602,1.89158 1.19087,3.3684 1.27745,3.28182 0.0866,-0.0866 -0.3466,-1.70508 -0.96262,-3.59666 z m -3.21831,-10.05722 c -0.61602,-1.89158 -1.19087,-3.3684 -1.27745,-3.28183 -0.0866,0.0866 0.34659,1.70508 0.96261,3.59666 0.61602,1.89158 1.19088,3.3684 1.27746,3.28183 0.0866,-0.0866 -0.3466,-1.70508 -0.96262,-3.59666 z m -3.21831,-10.05723 c -0.61602,-1.89158 -1.19088,-3.3684 -1.27746,-3.28182 -0.0866,0.0866 0.3466,1.70508 0.96262,3.59666 0.61602,1.89158 1.19088,3.3684 1.27746,3.28182 0.0866,-0.0866 -0.3466,-1.70508 -0.96262,-3.59666 z m -3.01579,-9.45517 c -0.50308,-1.56201 -0.98615,-2.76855 -1.07348,-2.68121 -0.0873,0.0873 0.25281,1.4368 0.75588,2.99881 0.50308,1.562 0.98615,2.76855 1.07349,2.68121 0.0873,-0.0873 -0.25281,-1.4368 -0.75589,-2.99881 z m -2.61276,-8.24904 c -0.38888,-1.23368 -0.77947,-2.17065 -0.86798,-2.08214 -0.0885,0.0885 0.15726,1.17029 0.54615,2.40397 0.38888,1.23368 0.77947,2.17065 0.86798,2.08214 0.0885,-0.0885 -0.15727,-1.17029 -0.54615,-2.40397 z m -1.25539,-3.87793 c -0.11802,-0.4513 -0.30447,-0.73065 -0.41433,-0.62079 -0.21763,0.21764 0.16679,1.44132 0.45279,1.44132 0.0969,0 0.0796,-0.36924 -0.0385,-0.82053 z m -2.36871,-7.38267 c -0.61602,-1.89158 -1.19087,-3.3684 -1.27745,-3.28182 -0.0866,0.0866 0.3466,1.70508 0.96262,3.59666 0.61601,1.89158 1.19087,3.3684 1.27745,3.28182 0.0866,-0.0866 -0.3466,-1.70507 -0.96262,-3.59666 z m -3.21831,-10.05722 c -0.61602,-1.89158 -1.19088,-3.3684 -1.27746,-3.28182 -0.0866,0.0866 0.3466,1.70507 0.96262,3.59665 0.61602,1.89159 1.19088,3.36841 1.27746,3.28183 0.0866,-0.0866 -0.3466,-1.70508 -0.96262,-3.59666 z"
           id="path46059"
           transform="scale(0.26458333)" />
      </g>
      <path
         style="opacity:0.99;fill:#800008;fill-opacity:1;stroke-width:0.0569818;stroke-dasharray:none;paint-order:stroke fill markers"
         d="m 369.91771,270.5226 c -0.1523,-0.25524 -29.99009,-93.70261 -29.93642,-93.75627 0.0933,-0.0934 3.80436,0.66852 6.13697,1.25992 2.55641,0.64814 5.73187,1.67029 7.74702,2.4937 l 1.34665,0.55024 10.34114,32.35218 c 5.68763,17.79369 10.398,32.44354 10.46749,32.5552 0.23012,0.36977 -1.33455,7.88889 -2.95085,14.18051 -1.18603,4.61671 -3.0076,10.6065 -3.152,10.36452 z"
         id="path46061"
         transform="scale(0.26458333)" />
      <path
         style="opacity:0.99;fill:#800008;fill-opacity:1;stroke-width:0.0569818;stroke-dasharray:none;paint-order:stroke fill markers"
         d="m 296.16338,208.11785 -9.13468,-28.62278 0.44395,-2.17108 0.44395,-2.17107 4.27433,0.0376 4.27433,0.0376 6.56124,20.52972 6.56124,20.52972 -1.7501,8.62756 c -0.96255,4.74516 -1.89291,9.3476 -2.06746,10.22765 -0.17455,0.88006 -0.35218,1.59959 -0.39474,1.59897 -0.0426,-5.7e-4 -4.18798,-12.88138 -9.21206,-28.62392 z"
         id="path46063"
         transform="scale(0.26458333)" />
      <path
         style="opacity:0.99;fill:#800008;fill-opacity:1;stroke-width:0.113964;stroke-dasharray:none;paint-order:stroke fill markers"
         d="m 341.96242,308.99606 c -0.46207,-1.44719 -2.58755,-8.09623 -4.72329,-14.77564 l -3.88316,-12.14438 1.12873,-2.07869 c 1.54218,-2.8401 3.28778,-7.01331 4.8765,-11.65824 l 1.33063,-3.89033 6.02008,18.84958 c 3.31104,10.36727 6.02007,18.97137 6.02007,19.12021 0,0.78969 -8.88727,9.19978 -9.72944,9.20704 -0.10999,8.5e-4 -0.57805,-1.18235 -1.04012,-2.62955 z"
         id="path46065"
         transform="scale(0.26458333)" />
      <path
         style="opacity:0.99;fill:#800008;fill-opacity:1;stroke-width:0.113964;stroke-dasharray:none;paint-order:stroke fill markers"
         d="m 298.42008,316.24738 c -1.63165,-5.12252 -3.50723,-11.00976 -4.16794,-13.08277 l -1.2013,-3.76912 4.8791,0.004 4.87909,0.004 3.94103,12.39683 c 2.16756,6.81825 3.83166,12.49601 3.69799,12.61724 -0.26219,0.23781 -6.80401,1.15098 -8.20794,1.14575 l -0.85339,-0.003 z"
         id="path46067"
         transform="scale(0.26458333)" />
      <path
         style="opacity:0.99;fill:#800008;fill-opacity:1;stroke-width:0.113964;stroke-dasharray:none;paint-order:stroke fill markers"
         d="m 296.2909,319.23667 c -1.17181,-3.63755 -6.81093,-21.26152 -12.53137,-39.16438 l -10.40081,-32.55066 1.75276,-8.83846 c 0.96401,-4.86115 1.82999,-8.92484 1.92439,-9.03041 0.0944,-0.10557 4.19439,12.43917 9.11107,27.87721 4.91669,15.43803 9.01783,28.16366 9.11366,28.27918 0.0958,0.11551 -0.4218,3.15417 -1.15029,6.75258 l -1.32452,6.54256 4.20393,13.15863 c 2.97562,9.31393 4.10747,13.22001 3.87378,13.36869 -0.18159,0.11554 -0.80533,0.21203 -1.38609,0.21443 l -1.05593,0.004 z"
         id="path46069"
         transform="scale(0.26458333)" />
      <path
         style="opacity:0.99;fill:#800008;fill-opacity:1;stroke-width:0.113964;stroke-dasharray:none;paint-order:stroke fill markers"
         d="m 311.44186,205.6655 c -0.19585,-0.3291 -9.62844,-29.82325 -9.62844,-30.10653 0,-0.10373 2.74345,-0.18859 6.09655,-0.18859 h 6.09656 l 1.14521,3.62688 c 0.62986,1.99478 2.49468,7.84582 4.14405,13.00231 1.64936,5.15648 2.99884,9.47674 2.99884,9.60057 0,0.12382 -2.22454,0.22514 -4.94343,0.22514 h -4.94342 l -0.39832,2.06234 c -0.21908,1.13429 -0.47449,1.93434 -0.5676,1.77788 z"
         id="path46071"
         transform="scale(0.26458333)" />
      <path
         style="opacity:0.99;fill:#800008;fill-opacity:1;stroke-width:0.113964;stroke-dasharray:none;marker-start:url(#TriangleStart);paint-order:stroke fill markers"
         d="m 264.4427,316.40722 -3.09313,-9.72258 1.34854,-6.70253 c 0.7417,-3.68639 1.43355,-6.86057 1.53745,-7.05373 0.1039,-0.19316 2.54377,7.03927 5.42194,16.07206 2.87816,9.0328 5.28802,16.58327 5.35523,16.77884 0.0938,0.27289 -0.76133,0.35499 -3.67735,0.35304 l -3.79955,-0.003 z"
         id="path46073"
         transform="scale(0.26458333)" />
      <path
         style="opacity:0.99;fill:#800008;fill-opacity:1;stroke-width:0.0852853;stroke-dasharray:none;paint-order:stroke fill markers"
         d="m 76.256271,62.055858 -2.297345,-7.2269 0.478509,-2.455283 c 0.308467,-1.582775 0.574027,-2.455283 0.7473,-2.455283 0.151466,0 0.215305,0.13938 0.146256,0.319317 -0.06745,0.175771 -0.0063,0.319318 0.135896,0.319318 0.142255,0 0.203348,0.143544 0.135898,0.319315 -0.06739,0.175625 -0.0195,0.319318 0.106439,0.319318 0.125933,0 0.173831,0.143692 0.106436,0.319317 -0.06739,0.175623 -0.0195,0.319315 0.10644,0.319315 0.125936,0 0.173833,0.143693 0.106439,0.319318 -0.06739,0.175625 -0.02328,0.319318 0.09801,0.319318 0.127998,0 0.16029,0.189841 0.07695,0.452414 -0.103106,0.324855 -0.07071,0.407371 0.1149,0.292658 0.187751,-0.116039 0.216879,-0.02866 0.10644,0.319317 -0.110443,0.347973 -0.08131,0.435354 0.106436,0.319316 0.185611,-0.114713 0.218006,-0.0322 0.114901,0.292658 -0.08334,0.262575 -0.05105,0.452416 0.07695,0.452416 0.121298,0 0.165402,0.143693 0.09801,0.319315 -0.06739,0.175625 -0.0195,0.319318 0.106439,0.319318 0.125934,0 0.173831,0.143692 0.106439,0.319318 -0.06745,0.17577 -0.0064,0.319317 0.135896,0.319317 0.142255,0 0.203345,0.143545 0.135895,0.319315 -0.0674,0.175625 -0.0195,0.319318 0.106439,0.319318 0.125934,0 0.173831,0.143692 0.106439,0.319318 -0.06739,0.175622 -0.0195,0.319315 0.10644,0.319315 0.125933,0 0.173831,0.143692 0.106439,0.319317 -0.06739,0.175625 -0.02328,0.319318 0.09801,0.319318 0.128,0 0.16029,0.189841 0.07695,0.452414 -0.103105,0.324855 -0.07071,0.407371 0.114901,0.292658 0.187753,-0.116038 0.216881,-0.02865 0.106439,0.319318 -0.110442,0.347972 -0.08131,0.435353 0.106439,0.319315 0.185608,-0.114713 0.218006,-0.0322 0.114901,0.292658 -0.08334,0.262575 -0.05105,0.452416 0.07695,0.452416 0.121298,0 0.165402,0.143693 0.09801,0.319315 -0.06739,0.175625 -0.0195,0.319318 0.106439,0.319318 0.125937,0 0.173834,0.143693 0.10644,0.319318 -0.06745,0.17577 -0.0064,0.319317 0.135895,0.319317 0.142256,0 0.203345,0.143545 0.135895,0.319315 -0.06739,0.175626 -0.0195,0.319318 0.106439,0.319318 0.125937,0 0.173834,0.143693 0.10644,0.319318 -0.06739,0.175622 -0.0195,0.319315 0.106439,0.319315 0.125936,0 0.173834,0.143692 0.106439,0.319317 -0.0674,0.175626 -0.02328,0.319318 0.09801,0.319318 0.127997,0 0.160287,0.189841 0.07695,0.452414 -0.103105,0.324855 -0.07071,0.407371 0.114898,0.292658 0.179266,-0.110792 0.222652,-0.0374 0.141563,0.23944 -0.06431,0.219557 -0.327494,1.476888 -0.584854,2.794072 -0.257357,1.31718 -0.526338,2.393182 -0.59773,2.391113 -0.07139,-0.0021 -1.163612,-3.255867 -2.427154,-7.230663 z"
         id="path51277" />
      <path
         style="opacity:0.99;fill:#800008;fill-opacity:1;stroke-width:0.322338;stroke-dasharray:none;paint-order:stroke fill markers"
         d="m 316.16335,310.58276 c -2.06077,-6.48349 -3.61988,-11.86486 -3.46468,-11.95858 0.15519,-0.0937 2.18299,-0.94385 4.5062,-1.88916 2.77294,-1.1283 4.22827,-1.39703 4.23636,-0.78225 0.008,0.60215 0.25718,0.55015 0.69817,-0.14566 0.92641,-1.46177 1.8085,2.00691 1.20209,4.72703 -0.28119,1.2613 -0.18391,1.62654 0.26631,0.9999 0.9424,-1.31172 5.9927,14.05094 5.38071,16.36774 -0.29738,1.12577 -1.54624,2.03113 -3.68614,2.67226 -1.78001,0.53331 -3.72143,1.15578 -4.31427,1.38327 -0.78023,0.2994 -2.11263,-2.84179 -4.82475,-11.37455 z"
         id="path51279"
         transform="scale(0.26458333)" />
      <path
         style="opacity:0.99;fill:#800008;fill-opacity:1;stroke-width:0.322338;stroke-dasharray:none;paint-order:stroke fill markers"
         d="m 276.07877,307.54994 c -10.03823,-31.27687 -9.15459,-26.49022 -6.98515,-37.8382 1.03391,-5.40818 2.11693,-10.49362 2.40671,-11.30098 0.33606,-0.9363 4.47504,10.86489 11.42854,32.58541 7.39217,23.09079 10.61697,34.24363 10.0173,34.64445 -0.4864,0.32511 -3.12969,0.59666 -5.87398,0.60344 l -4.98963,0.0123 z"
         id="path51281"
         transform="scale(0.26458333)" />
      <path
         style="opacity:0.99;fill:#800008;fill-opacity:1;stroke-width:0.322338;stroke-dasharray:none;paint-order:stroke fill markers"
         d="m 353.51421,299.30301 c -0.0856,-0.88503 -0.13887,-2.06173 -0.11833,-2.61487 0.0205,-0.55315 -0.32321,-1.00573 -0.76391,-1.00573 -0.44069,0 -0.59286,-0.54309 -0.33814,-1.20686 0.25471,-0.66378 0.0737,-1.20687 -0.40229,-1.20687 -0.47597,0 -0.66598,-0.5197 -0.42224,-1.15489 0.24375,-0.63518 0.18447,-1.26879 -0.13173,-1.40801 -0.69894,-0.30773 -4.60965,-12.71963 -4.45271,-14.13209 0.0615,-0.55315 -0.24882,-1.00573 -0.68951,-1.00573 -0.4407,0 -0.60184,-0.5197 -0.35809,-1.15488 0.24374,-0.63519 0.15925,-1.26879 -0.18777,-1.40801 -0.34701,-0.13922 -1.36705,-2.68548 -2.26675,-5.65835 -1.51291,-4.99906 -1.55066,-5.78502 -0.50238,-10.45952 0.6234,-2.77986 1.34295,-5.59738 1.59899,-6.26115 0.25605,-0.66378 3.67883,8.56875 7.60618,20.51673 7.69965,23.4243 7.57429,22.4427 3.50229,27.42345 -1.71956,2.10331 -1.93402,2.17951 -2.07361,0.73678 z"
         id="path51283"
         transform="scale(0.26458333)" />
      <path
         style="opacity:0.99;fill:#800008;fill-opacity:1;stroke-width:0.322338;stroke-dasharray:none;paint-order:stroke fill markers"
         d="m 330.67246,307.7238 c -1.62698,-4.8827 -2.74724,-9.42726 -2.48947,-10.09901 0.25778,-0.67176 0.1494,-1.02404 -0.24085,-0.78286 -0.39024,0.24119 -0.9405,-0.48174 -1.2228,-1.60649 -0.5618,-2.2384 0.24557,-4.04891 4.02383,-9.02341 l 2.47536,-3.25908 4.14529,13.09321 c 2.27991,7.20127 4.36764,13.67265 4.6394,14.38086 0.3542,0.92302 -0.59689,1.97954 -3.3587,3.73103 -2.11906,1.34387 -4.11407,2.44339 -4.43336,2.44339 -0.3193,0 -1.91171,-3.99494 -3.5387,-8.87764 z"
         id="path51285"
         transform="scale(0.26458333)" />
    </g>
  </g>
</svg>
